<svg width="23" height="24" viewBox="0 0 23 24" fill="none" xmlns="http://www.w3.org/2000/svg">
<path d="M10.8497 16.5482L11.5273 17.2267L20.8701 7.88679C21.0485 7.70662 21.1486 7.4633 21.1486 7.20972C21.1486 6.95615 21.0485 6.71283 20.8701 6.53266C20.7813 6.4433 20.6758 6.37235 20.5596 6.32391C20.4433 6.27547 20.3187 6.25049 20.1927 6.2504C20.0668 6.25031 19.9421 6.27512 19.8258 6.32339C19.7095 6.37167 19.6038 6.44246 19.515 6.5317L11.5292 14.5146L3.55011 6.5317C3.4614 6.44243 3.35591 6.37158 3.23971 6.32324C3.12351 6.27489 2.9989 6.25 2.87305 6.25C2.74719 6.25 2.62258 6.27489 2.50638 6.32324C2.39019 6.37158 2.2847 6.44243 2.19599 6.5317C2.017 6.71166 1.91638 6.95504 1.91602 7.20885C1.91566 7.46266 2.0156 7.70633 2.19407 7.88679L10.8124 16.5089L10.8507 16.5482H10.8497Z" fill="#7A5651"/>
</svg>
