<svg width="32" height="32" viewBox="0 0 32 32" fill="none" xmlns="http://www.w3.org/2000/svg">
<g clip-path="url(#clip0_763_5572)">
<path d="M31.143 4.83122L19.9742 16L31.143 27.1687C31.6534 27.6799 31.9688 28.3847 31.9688 29.1636C31.9688 30.7215 30.7059 31.9843 29.148 31.9843C28.3691 31.9843 27.6636 31.669 27.1532 31.1578L15.9843 19.989L4.81562 31.1578C4.30519 31.669 3.59966 31.9843 2.82072 31.9843C1.26283 31.9843 3.19376e-05 30.7215 3.19376e-05 29.1637C3.19376e-05 28.3847 0.31534 27.68 0.825776 27.1688L11.9946 16L0.825744 4.83122C0.315308 4.32075 0 3.61522 0 2.83628C0 1.27842 1.2628 0.015625 2.82068 0.015625C3.59963 0.015625 4.30519 0.330933 4.81559 0.842135L15.9843 12.0109L27.1532 0.842135C27.6636 0.330933 28.3691 0.015625 29.148 0.015625C30.7059 0.015625 31.9687 1.27842 31.9687 2.83628C31.9687 3.61519 31.6534 4.32075 31.143 4.83122Z" fill="#370903"/>
<path d="M31.143 4.83122L19.9742 16L31.143 27.1687C31.6534 27.6799 31.9688 28.3847 31.9688 29.1636C31.9688 30.7215 30.7059 31.9843 29.148 31.9843C28.3691 31.9843 27.6636 31.669 27.1532 31.1578L15.9843 19.989L4.81562 31.1578C4.30519 31.669 3.59966 31.9843 2.82072 31.9843C1.26283 31.9843 3.19376e-05 30.7215 3.19376e-05 29.1637C3.19376e-05 28.3847 0.31534 27.68 0.825776 27.1688L11.9946 16L0.825744 4.83122C0.315308 4.32075 0 3.61522 0 2.83628C0 1.27842 1.2628 0.015625 2.82068 0.015625C3.59963 0.015625 4.30519 0.330933 4.81559 0.842135L15.9843 12.0109L27.1532 0.842135C27.6636 0.330933 28.3691 0.015625 29.148 0.015625C30.7059 0.015625 31.9687 1.27842 31.9687 2.83628C31.9687 3.61519 31.6534 4.32075 31.143 4.83122Z" stroke="#E1D0BD"/>
</g>
<defs>
<clipPath id="clip0_763_5572">
<rect width="32" height="32" fill="white"/>
</clipPath>
</defs>
</svg>
