<svg width="31" height="35" viewBox="0 0 31 35" fill="none" xmlns="http://www.w3.org/2000/svg">
<path d="M8.98758 25.1918L8.9167 25.2551C8.51048 25.6179 7.89915 25.1618 8.13131 24.6691L8.96902 22.8911C9.42035 21.9332 8.76388 20.8218 7.70711 20.7548L6.74303 20.6936C6.28583 20.6646 6.10513 20.0871 6.46423 19.8027L9.30235 17.5544C9.83587 17.1318 10.018 16.4029 9.7459 15.7791L8.49274 12.9053C8.33245 12.5378 8.64837 12.1405 9.04259 12.2139L11.0502 12.5878C11.8624 12.739 12.644 12.205 12.7984 11.3933L13.3863 8.30148C13.4823 7.79631 14.1867 7.74773 14.3512 8.23491L14.4272 8.45991C14.8223 9.62988 16.3828 9.84797 17.0835 8.83114L17.5006 8.22584C17.8148 7.76985 18.5273 8.08704 18.3986 8.62567L18.2279 9.34067C17.9411 10.5418 19.1474 11.5556 20.2812 11.0663L20.4993 10.9722C20.9714 10.7685 21.4066 11.3244 21.0954 11.7338L19.1911 14.2396C18.6912 14.8974 18.8174 15.8356 19.4733 16.338L21.0944 17.5797C21.4128 17.8236 21.329 18.3242 20.9485 18.451L17.9744 19.4426C17.3287 19.6579 16.9089 20.2809 16.9518 20.9602L17.1802 24.5737C17.209 25.0309 16.659 25.283 16.3315 24.9627L15.641 24.2872C14.884 23.5467 13.6188 23.8025 13.209 24.7788L12.4482 26.5911C12.2374 27.0933 11.4894 26.9442 11.4872 26.3995L11.4868 26.3045C11.4817 25.0113 9.95202 24.3303 8.98758 25.1918Z" stroke="#666666"/>
<path fill-rule="evenodd" clip-rule="evenodd" d="M21.3742 25.9755C20.6161 25.577 19.7105 25.577 18.9524 25.9755V25.9755C17.0434 26.9792 14.8122 25.3581 15.1768 23.2324V23.2324C15.3216 22.3882 15.0417 21.5269 14.4284 20.9291V20.9291C12.8839 19.4236 13.7362 16.8007 15.8706 16.4906V16.4906C16.7181 16.3674 17.4508 15.8351 17.8298 15.0671V15.0671C18.7844 13.133 21.5423 13.133 22.4968 15.0671V15.0671C22.8758 15.8351 23.6085 16.3674 24.4561 16.4906V16.4906C26.5904 16.8007 27.4427 19.4236 25.8982 20.9291V20.9291C25.2849 21.5269 25.0051 22.3882 25.1499 23.2324V23.2324C25.5145 25.3581 23.2833 26.9792 21.3742 25.9755V25.9755Z" fill="#666666"/>
</svg>
