<svg width="53" height="46" viewBox="0 0 53 46" fill="none" xmlns="http://www.w3.org/2000/svg">
<path d="M7.18442 23.0015L25.5333 5.2644C26.6148 4.21719 26.6148 2.52236 25.5333 1.47849C24.4519 0.432951 22.6973 0.432951 21.6159 1.47849L1.30986 21.109C0.230048 22.1545 0.230048 23.8502 1.30986 24.8925L21.6159 44.5221C22.1582 45.0449 22.8672 45.3063 23.5762 45.3063C24.2853 45.3063 24.9942 45.0449 25.5333 44.5205C26.6148 43.4749 26.6148 41.7825 25.5333 40.737L7.18442 23.0015Z" fill="#370903"/>
<path d="M50.4395 25.5C51.8202 25.5 52.9395 24.3807 52.9395 23C52.9395 21.6193 51.8202 20.5 50.4395 20.5V25.5ZM4.93945 25.5H50.4395V20.5H4.93945V25.5Z" fill="#370903"/>
</svg>
