<svg width="1305" height="195" viewBox="0 0 1305 195" fill="none" xmlns="http://www.w3.org/2000/svg">
<path d="M7.04478 4.408H55.9728C57.8501 4.408 59.2288 4.64266 60.1088 5.112C60.9888 5.52266 61.5755 6.19733 61.8688 7.136C62.1621 8.07466 62.3088 9.30666 62.3088 10.832C62.3088 12.3573 62.1621 13.5893 61.8688 14.528C61.5755 15.408 61.0768 16.024 60.3728 16.376C59.3168 16.904 57.8208 17.168 55.8848 17.168H39.0768V61.432C39.0768 62.7813 39.0181 63.7787 38.9008 64.424C38.8421 65.0693 38.5781 65.832 38.1088 66.712C37.6981 67.5333 36.9354 68.12 35.8208 68.472C34.7061 68.824 33.2394 69 31.4208 69C29.6021 69 28.1354 68.824 27.0208 68.472C25.9648 68.12 25.2021 67.5333 24.7328 66.712C24.3221 65.832 24.0581 65.0693 23.9408 64.424C23.8821 63.72 23.8528 62.6933 23.8528 61.344V17.168H6.95678C5.07945 17.168 3.70078 16.9627 2.82078 16.552C1.94078 16.0827 1.35411 15.3787 1.06078 14.44C0.767448 13.5013 0.620781 12.2693 0.620781 10.744C0.620781 9.21866 0.767448 8.016 1.06078 7.136C1.35411 6.19733 1.85278 5.552 2.55678 5.2C3.61278 4.672 5.10878 4.408 7.04478 4.408ZM92.884 22.8C98.7506 22.8 103.62 25.0293 107.492 29.488C111.423 33.9467 113.388 39.4027 113.388 45.856V61.344C113.388 62.6933 113.329 63.72 113.212 64.424C113.153 65.0693 112.889 65.832 112.42 66.712C111.657 68.2373 109.399 69 105.644 69C102.065 69 99.836 68.2373 98.956 66.712C98.4866 65.832 98.1933 65.04 98.076 64.336C98.0173 63.632 97.988 62.576 97.988 61.168V45.768C97.988 43.3627 97.3133 41.4853 95.964 40.136C94.6146 38.7867 92.884 38.112 90.772 38.112C88.7186 38.112 86.9 38.7573 85.316 40.048C83.732 41.28 82.8226 42.688 82.588 44.272V61.344C82.588 62.6933 82.5293 63.72 82.412 64.424C82.3533 65.0693 82.0893 65.832 81.62 66.712C80.8573 68.2373 78.5986 69 74.844 69C71.148 69 68.8893 68.208 68.068 66.624C67.6573 65.744 67.3933 64.9813 67.276 64.336C67.2173 63.6907 67.188 62.664 67.188 61.256V8.632C67.188 7.28266 67.2173 6.28533 67.276 5.64C67.3933 4.936 67.6573 4.17333 68.068 3.352C68.8893 1.76799 71.1773 0.975995 74.932 0.975995C78.628 0.975995 80.8573 1.76799 81.62 3.352C82.0893 4.232 82.3533 5.024 82.412 5.728C82.5293 6.37333 82.588 7.37066 82.588 8.71999V28.168C85.5213 24.5893 88.9533 22.8 92.884 22.8ZM165.173 40.312C165.173 43.8907 164.264 46.56 162.445 48.32C160.685 50.0213 158.72 50.872 156.549 50.872H135.693C135.693 52.5147 136.661 53.8933 138.597 55.008C140.533 56.1227 142.469 56.68 144.405 56.68C147.808 56.68 150.477 56.328 152.413 55.624L153.381 55.272C154.789 54.6267 155.963 54.304 156.901 54.304C158.779 54.304 160.392 55.624 161.741 58.264C162.504 59.848 162.885 61.1973 162.885 62.312C162.885 67.5333 156.637 70.144 144.141 70.144C139.8 70.144 135.928 69.4107 132.525 67.944C129.181 66.4187 126.571 64.424 124.693 61.96C120.997 57.208 119.149 51.8987 119.149 46.032C119.149 38.64 121.525 32.744 126.277 28.344C131.088 23.8853 137.072 21.656 144.229 21.656C152.384 21.656 158.368 24.5307 162.181 30.28C164.176 33.3307 165.173 36.6747 165.173 40.312ZM146.605 42.864C148.835 42.864 149.949 41.9253 149.949 40.048C149.949 38.6987 149.421 37.6133 148.365 36.792C147.368 35.9707 145.901 35.56 143.965 35.56C142.088 35.56 140.211 36.352 138.333 37.936C136.456 39.4613 135.517 41.104 135.517 42.864H146.605ZM856.966 151.856C856.966 144.816 859.43 139.008 864.358 134.432C869.286 129.856 874.918 127.568 881.254 127.568C887.59 127.568 893.192 129.856 898.062 134.432C902.931 138.949 905.366 144.728 905.366 151.768C905.366 156.637 904.104 160.979 901.582 164.792C899.059 168.547 895.979 171.333 892.342 173.152C888.763 174.912 885.038 175.792 881.166 175.792C877.294 175.792 873.539 174.853 869.902 172.976C866.264 171.04 863.184 168.224 860.662 164.528C858.198 160.773 856.966 156.549 856.966 151.856ZM875.358 158.192C877.235 159.6 879.142 160.304 881.078 160.304C883.014 160.304 884.95 159.571 886.886 158.104C888.822 156.637 889.79 154.467 889.79 151.592C889.79 148.717 888.88 146.576 887.062 145.168C885.243 143.76 883.278 143.056 881.166 143.056C879.054 143.056 877.088 143.789 875.27 145.256C873.451 146.723 872.542 148.893 872.542 151.768C872.542 154.584 873.48 156.725 875.358 158.192ZM936.835 128.624C942.702 128.624 947.571 130.883 951.443 135.4C955.374 139.859 957.339 145.315 957.339 151.768V167.256C957.339 168.605 957.281 169.632 957.163 170.336C957.105 170.981 956.87 171.715 956.459 172.536C955.638 174.12 953.35 174.912 949.595 174.912C945.43 174.912 943.025 173.827 942.379 171.656C942.027 170.659 941.851 169.163 941.851 167.168V151.68C941.851 149.275 941.147 147.397 939.739 146.048C938.39 144.699 936.542 144.024 934.195 144.024C931.907 144.024 930.03 144.728 928.563 146.136C927.155 147.544 926.451 149.392 926.451 151.68V167.256C926.451 168.605 926.393 169.632 926.275 170.336C926.217 170.981 925.953 171.715 925.483 172.536C924.721 174.12 922.462 174.912 918.707 174.912C915.011 174.912 912.753 174.12 911.931 172.536C911.521 171.656 911.257 170.893 911.139 170.248C911.081 169.544 911.051 168.517 911.051 167.168V136.016C911.051 134.725 911.081 133.757 911.139 133.112C911.257 132.408 911.55 131.645 912.019 130.824C912.841 129.357 915.099 128.624 918.795 128.624C922.374 128.624 924.574 129.299 925.395 130.648C925.982 131.645 926.275 132.848 926.275 134.256C926.51 133.845 927.038 133.259 927.859 132.496C928.681 131.733 929.473 131.117 930.235 130.648C932.23 129.299 934.43 128.624 936.835 128.624ZM1032.61 140.416C1036.07 144.523 1037.8 149.128 1037.8 154.232C1037.69 160.099 1035.66 165.027 1031.73 169.016C1027.86 172.947 1023.14 174.912 1017.56 174.912H994.42C990.314 174.912 987.908 173.797 987.204 171.568C986.852 170.571 986.676 169.045 986.676 166.992V118.152C986.676 116.744 986.706 115.717 986.764 115.072C986.882 114.427 987.175 113.664 987.644 112.784C988.466 111.2 990.754 110.408 994.508 110.408H1016.68C1022.08 110.408 1026.6 112.285 1030.24 116.04C1034.05 119.853 1035.96 124.429 1035.96 129.768C1035.96 133.64 1034.84 137.189 1032.61 140.416ZM1022.23 153.352C1022.23 151.944 1022.05 150.829 1021.7 150.008C1021.41 149.187 1020.88 148.6 1020.12 148.248C1018.94 147.779 1017.3 147.544 1015.19 147.544C1013.08 147.544 1011.49 147.133 1010.44 146.312C1009.38 145.491 1008.85 143.819 1008.85 141.296C1008.85 138.715 1009.38 137.013 1010.44 136.192C1011.55 135.371 1013.37 134.96 1015.89 134.96C1018.24 134.96 1019.65 134.344 1020.12 133.112C1020.29 132.467 1020.38 131.411 1020.38 129.944C1020.38 128.477 1019.88 127.451 1018.88 126.864C1017.95 126.277 1016.51 125.984 1014.57 125.984H1002.25V159.336H1016.68C1020.38 159.336 1022.23 157.341 1022.23 153.352ZM1043.57 114.544C1043.57 113.195 1043.6 112.197 1043.65 111.552C1043.77 110.848 1044.04 110.056 1044.45 109.176C1045.27 107.592 1047.56 106.8 1051.31 106.8C1054.89 106.8 1057.12 107.592 1058 109.176C1058.47 110.056 1058.73 110.848 1058.79 111.552C1058.91 112.256 1058.97 113.283 1058.97 114.632V155.376C1058.97 157.488 1059.14 158.837 1059.49 159.424C1059.85 159.952 1060.61 160.216 1061.78 160.216C1063.01 160.216 1063.84 160.275 1064.25 160.392C1064.66 160.451 1065.16 160.685 1065.74 161.096C1066.92 161.859 1067.5 163.941 1067.5 167.344C1067.5 171.04 1066.92 173.299 1065.74 174.12C1064.22 175.176 1060.58 175.352 1054.83 174.648C1050.31 174.061 1047.38 172.565 1046.03 170.16C1044.39 167.285 1043.57 162.709 1043.57 156.432V114.544ZM1102.45 133.552C1102.8 130.267 1105.12 128.624 1109.4 128.624C1111.69 128.624 1113.39 128.8 1114.51 129.152C1115.62 129.504 1116.39 130.12 1116.8 131C1117.27 131.88 1117.53 132.672 1117.59 133.376C1117.71 134.021 1117.76 135.019 1117.76 136.368V167.168C1117.76 168.517 1117.71 169.544 1117.59 170.248C1117.53 170.893 1117.29 171.656 1116.88 172.536C1116.06 174.061 1114.04 174.824 1110.81 174.824C1107.64 174.824 1105.5 174.443 1104.39 173.68C1103.33 172.859 1102.72 171.685 1102.54 170.16C1100.37 173.269 1096.73 174.824 1091.63 174.824C1086.58 174.824 1081.89 172.507 1077.55 167.872C1073.21 163.237 1071.04 157.869 1071.04 151.768C1071.04 145.608 1073.21 140.24 1077.55 135.664C1081.95 131.029 1086.76 128.712 1091.98 128.712C1093.97 128.712 1095.79 129.064 1097.44 129.768C1099.08 130.472 1100.22 131.147 1100.87 131.792C1101.51 132.379 1102.04 132.965 1102.45 133.552ZM1086.44 151.856C1086.44 153.792 1087.2 155.552 1088.72 157.136C1090.25 158.661 1092.1 159.424 1094.27 159.424C1096.44 159.424 1098.23 158.632 1099.64 157.048C1101.1 155.464 1101.84 153.733 1101.84 151.856C1101.84 149.92 1101.13 148.131 1099.72 146.488C1098.37 144.845 1096.53 144.024 1094.18 144.024C1091.89 144.024 1090.01 144.845 1088.55 146.488C1087.14 148.131 1086.44 149.92 1086.44 151.856ZM1125.13 170.864C1124.02 170.16 1123.46 169.045 1123.46 167.52C1123.46 165.995 1124.57 163.677 1126.8 160.568C1127.45 159.571 1128.47 159.072 1129.88 159.072C1131.35 159.072 1133.31 159.805 1135.78 161.272C1138.24 162.68 1140.47 163.384 1142.47 163.384C1146.04 163.384 1147.83 162.68 1147.83 161.272C1147.83 160.157 1145.87 159.336 1141.94 158.808C1138.24 158.28 1134.58 156.901 1130.94 154.672C1129.24 153.616 1127.83 151.973 1126.71 149.744C1125.6 147.456 1125.04 144.757 1125.04 141.648C1125.04 132.379 1131.41 127.744 1144.14 127.744C1148.3 127.744 1152.59 128.741 1156.99 130.736C1159.04 131.675 1160.07 132.848 1160.07 134.256C1160.07 135.664 1159.42 137.395 1158.13 139.448C1156.84 141.501 1155.52 142.528 1154.17 142.528C1153.47 142.528 1152.15 142.088 1150.21 141.208C1148.33 140.328 1146.28 139.888 1144.05 139.888C1140.59 139.888 1138.86 140.533 1138.86 141.824C1138.86 143.584 1140.85 144.728 1144.84 145.256C1148.71 145.667 1152.47 146.781 1156.11 148.6C1157.81 149.421 1159.22 150.859 1160.33 152.912C1161.5 154.907 1162.09 157.429 1162.09 160.48C1162.09 163.531 1161.5 166.141 1160.33 168.312C1159.22 170.424 1157.63 172.008 1155.58 173.064C1151.82 174.883 1147.1 175.792 1141.41 175.792C1135.78 175.792 1130.35 174.149 1125.13 170.864ZM1193.39 144.2L1187.67 143.848V155.992C1187.67 157.576 1187.9 158.72 1188.37 159.424C1188.9 160.128 1189.84 160.48 1191.19 160.48C1192.59 160.48 1193.65 160.539 1194.35 160.656C1195.12 160.715 1195.91 160.979 1196.73 161.448C1198.08 162.211 1198.75 164.176 1198.75 167.344C1198.75 171.04 1197.93 173.299 1196.29 174.12C1195.41 174.531 1194.62 174.795 1193.91 174.912C1193.27 174.971 1192.3 175 1191.01 175C1184.91 175 1180.27 173.621 1177.11 170.864C1173.94 168.107 1172.35 163.443 1172.35 156.872V143.848C1171.24 144.024 1170.04 144.112 1168.75 144.112C1167.45 144.112 1166.37 143.613 1165.49 142.616C1164.67 141.619 1164.26 139.917 1164.26 137.512C1164.26 135.107 1164.4 133.376 1164.7 132.32C1164.99 131.205 1165.4 130.413 1165.93 129.944C1166.87 129.181 1168.04 128.8 1169.45 128.8L1172.35 129.152V120.088C1172.35 118.739 1172.38 117.741 1172.44 117.096C1172.56 116.451 1172.85 115.747 1173.32 114.984C1174.08 113.517 1176.34 112.784 1180.1 112.784C1184.09 112.784 1186.46 113.869 1187.23 116.04C1187.52 116.979 1187.67 118.475 1187.67 120.528V129.152C1190.25 128.917 1192.18 128.8 1193.47 128.8C1194.82 128.8 1195.82 128.859 1196.47 128.976C1197.17 129.035 1197.96 129.299 1198.84 129.768C1200.37 130.531 1201.13 132.789 1201.13 136.544C1201.13 140.24 1200.34 142.499 1198.75 143.32C1197.87 143.731 1197.08 143.995 1196.38 144.112C1195.73 144.171 1194.73 144.2 1193.39 144.2Z" fill="#370903"/>
<path d="M235.852 4.496C237.202 4.496 238.199 4.55466 238.844 4.672C239.548 4.73067 240.311 4.99466 241.132 5.46399C242.012 5.93333 242.628 6.72533 242.98 7.84C243.332 8.95466 243.508 10.4507 243.508 12.328C243.508 14.2053 243.332 15.7013 242.98 16.816C242.628 17.9307 242.012 18.7227 241.132 19.192C240.252 19.6027 239.46 19.8667 238.756 19.984C238.111 20.0427 237.084 20.072 235.676 20.072H208.748V28.96H226.084C227.492 28.96 228.519 29.0187 229.164 29.136C229.868 29.1947 230.66 29.4587 231.54 29.928C233.066 30.808 233.828 33.1253 233.828 36.88C233.828 40.9867 232.714 43.4213 230.484 44.184C229.546 44.4773 228.05 44.624 225.996 44.624H208.748V61.256C208.748 62.664 208.69 63.6907 208.572 64.336C208.514 64.9813 208.25 65.744 207.78 66.624C206.959 68.208 204.671 69 200.916 69C196.81 69 194.404 67.8853 193.7 65.656C193.348 64.7173 193.172 63.2213 193.172 61.168V12.24C193.172 9.248 193.73 7.224 194.844 6.168C195.959 5.05333 198.071 4.496 201.18 4.496H235.852ZM247.485 30.368C247.485 29.0187 247.514 28.0213 247.573 27.376C247.69 26.672 247.954 25.88 248.365 25C249.186 23.4747 251.474 22.712 255.229 22.712C258.045 22.712 260.04 23.2107 261.213 24.208C262.21 25.0293 262.738 26.2907 262.797 27.992C262.856 28.5787 262.885 29.4293 262.885 30.544V61.344C262.885 62.6933 262.826 63.72 262.709 64.424C262.65 65.0693 262.386 65.832 261.917 66.712C261.154 68.2373 258.896 69 255.141 69C251.445 69 249.186 68.208 248.365 66.624C247.954 65.744 247.69 64.9813 247.573 64.336C247.514 63.6907 247.485 62.664 247.485 61.256V30.368ZM261.917 14.088C261.506 14.9093 260.744 15.496 259.629 15.848C258.514 16.2 257.018 16.376 255.141 16.376C253.322 16.376 251.856 16.2 250.741 15.848C249.626 15.496 248.834 14.88 248.365 14C247.954 13.12 247.69 12.3573 247.573 11.712C247.514 11.008 247.485 9.98133 247.485 8.632C247.485 7.28266 247.514 6.28533 247.573 5.64C247.69 4.936 247.954 4.17333 248.365 3.352C249.186 1.76799 251.474 0.975995 255.229 0.975995C258.925 0.975995 261.154 1.76799 261.917 3.352C262.386 4.232 262.65 5.024 262.709 5.728C262.826 6.37333 262.885 7.37066 262.885 8.71999C262.885 10.0693 262.826 11.096 262.709 11.8C262.65 12.4453 262.386 13.208 261.917 14.088ZM301.419 23.152C302.533 23.504 303.443 24.12 304.147 25C304.909 25.8213 305.291 27.1707 305.291 29.048C305.291 30.9253 304.733 32.9787 303.619 35.208C302.504 37.4373 300.891 38.552 298.779 38.552C297.723 38.552 296.696 38.3173 295.699 37.848C294.76 37.3787 293.499 37.144 291.915 37.144C290.331 37.144 288.835 37.7013 287.427 38.816C286.077 39.9307 285.403 41.28 285.403 42.864V61.344C285.403 62.6933 285.344 63.72 285.227 64.424C285.168 65.0693 284.904 65.832 284.435 66.712C283.555 68.2373 281.267 69 277.571 69C274.755 69 272.731 68.5013 271.499 67.504C270.56 66.6827 270.032 65.4213 269.915 63.72C269.915 63.1333 269.915 62.2827 269.915 61.168V30.28C269.915 28.9307 269.944 27.9333 270.003 27.288C270.12 26.584 270.384 25.8213 270.795 25C271.616 23.416 273.904 22.624 277.659 22.624C281.179 22.624 283.379 23.2987 284.259 24.648C284.904 25.5867 285.227 26.5547 285.227 27.552C285.52 27.1413 285.931 26.6427 286.459 26.056C287.045 25.4693 288.248 24.6773 290.067 23.68C291.885 22.6827 293.469 22.184 294.819 22.184C296.227 22.184 297.4 22.272 298.339 22.448C299.277 22.5653 300.304 22.8 301.419 23.152ZM308.767 64.864C307.652 64.16 307.095 63.0453 307.095 61.52C307.095 59.9947 308.209 57.6773 310.439 54.568C311.084 53.5707 312.111 53.072 313.519 53.072C314.985 53.072 316.951 53.8053 319.415 55.272C321.879 56.68 324.108 57.384 326.103 57.384C329.681 57.384 331.471 56.68 331.471 55.272C331.471 54.1573 329.505 53.336 325.575 52.808C321.879 52.28 318.212 50.9013 314.575 48.672C312.873 47.616 311.465 45.9733 310.351 43.744C309.236 41.456 308.679 38.7573 308.679 35.648C308.679 26.3787 315.044 21.744 327.775 21.744C331.94 21.744 336.223 22.7413 340.623 24.736C342.676 25.6747 343.703 26.848 343.703 28.256C343.703 29.664 343.057 31.3947 341.767 33.448C340.476 35.5013 339.156 36.528 337.807 36.528C337.103 36.528 335.783 36.088 333.847 35.208C331.969 34.328 329.916 33.888 327.687 33.888C324.225 33.888 322.495 34.5333 322.495 35.824C322.495 37.584 324.489 38.728 328.479 39.256C332.351 39.6667 336.105 40.7813 339.743 42.6C341.444 43.4213 342.852 44.8587 343.967 46.912C345.14 48.9067 345.727 51.4293 345.727 54.48C345.727 57.5307 345.14 60.1413 343.967 62.312C342.852 64.424 341.268 66.008 339.215 67.064C335.46 68.8827 330.737 69.792 325.047 69.792C319.415 69.792 313.988 68.1493 308.767 64.864ZM377.022 38.2L371.302 37.848V49.992C371.302 51.576 371.537 52.72 372.006 53.424C372.534 54.128 373.473 54.48 374.822 54.48C376.23 54.48 377.286 54.5387 377.99 54.656C378.753 54.7147 379.545 54.9787 380.366 55.448C381.716 56.2107 382.39 58.176 382.39 61.344C382.39 65.04 381.569 67.2987 379.926 68.12C379.046 68.5307 378.254 68.7947 377.55 68.912C376.905 68.9707 375.937 69 374.646 69C368.545 69 363.91 67.6213 360.742 64.864C357.574 62.1067 355.99 57.4427 355.99 50.872V37.848C354.876 38.024 353.673 38.112 352.382 38.112C351.092 38.112 350.006 37.6133 349.126 36.616C348.305 35.6187 347.894 33.9173 347.894 31.512C347.894 29.1067 348.041 27.376 348.334 26.32C348.628 25.2053 349.038 24.4133 349.566 23.944C350.505 23.1813 351.678 22.8 353.086 22.8L355.99 23.152V14.088C355.99 12.7387 356.02 11.7413 356.078 11.096C356.196 10.4507 356.489 9.74666 356.958 8.984C357.721 7.51733 359.98 6.784 363.734 6.784C367.724 6.784 370.1 7.86933 370.862 10.04C371.156 10.9787 371.302 12.4747 371.302 14.528V23.152C373.884 22.9173 375.82 22.8 377.11 22.8C378.46 22.8 379.457 22.8587 380.102 22.976C380.806 23.0347 381.598 23.2987 382.478 23.768C384.004 24.5307 384.766 26.7893 384.766 30.544C384.766 34.24 383.974 36.4987 382.39 37.32C381.51 37.7307 380.718 37.9947 380.014 38.112C379.369 38.1707 378.372 38.2 377.022 38.2ZM454.563 4.496C455.913 4.496 456.91 4.55466 457.555 4.672C458.259 4.73067 459.022 4.99466 459.843 5.46399C460.723 5.93333 461.339 6.72533 461.691 7.84C462.043 8.95466 462.219 10.4507 462.219 12.328C462.219 14.2053 462.043 15.7013 461.691 16.816C461.339 17.9307 460.723 18.7227 459.843 19.192C458.963 19.6027 458.171 19.8667 457.467 19.984C456.822 20.0427 455.795 20.072 454.387 20.072H427.459V28.96H444.795C446.203 28.96 447.23 29.0187 447.875 29.136C448.579 29.1947 449.371 29.4587 450.251 29.928C451.777 30.808 452.539 33.1253 452.539 36.88C452.539 40.9867 451.425 43.4213 449.195 44.184C448.257 44.4773 446.761 44.624 444.707 44.624H427.459V61.256C427.459 62.664 427.401 63.6907 427.283 64.336C427.225 64.9813 426.961 65.744 426.491 66.624C425.67 68.208 423.382 69 419.627 69C415.521 69 413.115 67.8853 412.411 65.656C412.059 64.7173 411.883 63.2213 411.883 61.168V12.24C411.883 9.248 412.441 7.224 413.555 6.168C414.67 5.05333 416.782 4.496 419.891 4.496H454.563ZM483.264 68.824C477.339 68.824 472.411 66.5947 468.48 62.136C464.608 57.6187 462.672 52.1333 462.672 45.68V30.28C462.672 28.872 462.702 27.8453 462.76 27.2C462.878 26.5547 463.142 25.792 463.552 24.912C464.374 23.328 466.662 22.536 470.416 22.536C474.523 22.536 476.928 23.6507 477.632 25.88C477.984 26.8187 478.16 28.3147 478.16 30.368V45.768C478.16 48.1733 478.835 50.0507 480.184 51.4C481.592 52.7493 483.44 53.424 485.728 53.424C488.075 53.424 489.952 52.72 491.36 51.312C492.827 49.904 493.56 48.056 493.56 45.768V30.192C493.56 28.8427 493.59 27.8453 493.648 27.2C493.766 26.496 494.059 25.704 494.528 24.824C495.291 23.2987 497.55 22.536 501.304 22.536C505 22.536 507.259 23.328 508.08 24.912C508.491 25.792 508.726 26.584 508.784 27.288C508.902 27.9333 508.96 28.9307 508.96 30.28V61.432C508.96 62.7227 508.902 63.72 508.784 64.424C508.726 65.0693 508.462 65.8027 507.992 66.624C507.112 68.1493 504.854 68.912 501.216 68.912C497.638 68.912 495.438 68.208 494.616 66.8C494.03 65.8027 493.736 64.6 493.736 63.192C493.502 63.6027 492.974 64.1893 492.152 64.952C491.331 65.7147 490.539 66.36 489.776 66.888C487.782 68.1787 485.611 68.824 483.264 68.824ZM532.232 53.424C534.168 53.424 535.605 53.9227 536.544 54.92C537.482 55.9173 537.952 57.9707 537.952 61.08C537.952 64.1893 537.453 66.272 536.456 67.328C535.458 68.3253 534.021 68.824 532.144 68.824C526.218 68.824 522.053 67.416 519.648 64.6C517.242 61.7253 516.04 56.9733 516.04 50.344V8.368C516.04 7.01867 516.069 6.02133 516.128 5.376C516.245 4.672 516.509 3.88 516.92 2.99999C517.741 1.47466 520.029 0.711998 523.784 0.711998C527.362 0.711998 529.592 1.53333 530.472 3.176C530.941 3.99733 531.205 4.76 531.264 5.46399C531.381 6.10933 531.44 7.10666 531.44 8.456V50.696C531.44 52.5147 531.704 53.424 532.232 53.424ZM555.2 50.696C555.2 51.8107 555.434 52.544 555.904 52.896C556.373 53.248 557.576 53.424 559.512 53.424C561.448 53.424 563.061 53.9227 564.352 54.92C565.642 55.9173 566.288 57.9707 566.288 61.08C566.288 64.1893 565.584 66.272 564.176 67.328C562.826 68.3253 560.92 68.824 558.456 68.824C546.018 68.824 539.8 62.664 539.8 50.344L539.712 8.368C539.712 7.01867 539.741 6.02133 539.8 5.376C539.917 4.672 540.21 3.88 540.68 2.99999C541.56 1.47466 543.848 0.711998 547.544 0.711998C551.122 0.711998 553.352 1.53333 554.232 3.176C554.877 4.46667 555.2 6.22667 555.2 8.456V50.696ZM597.085 56.768H576.141C572.856 56.768 570.891 55.7707 570.245 53.776C569.952 52.72 569.805 51.3707 569.805 49.728C569.805 48.0853 569.981 46.7653 570.333 45.768C570.685 44.7707 571.243 44.0667 572.005 43.656C573.061 43.128 574.469 42.864 576.229 42.864H597.173C600.459 42.864 602.395 43.832 602.981 45.768C603.333 46.824 603.509 48.1733 603.509 49.816C603.509 51.4587 603.333 52.808 602.981 53.864C602.688 54.8613 602.189 55.5653 601.485 55.976C600.429 56.504 598.963 56.768 597.085 56.768ZM610.164 59.936C608.638 58.0587 607.876 56.3867 607.876 54.92C607.876 53.3947 609.137 51.4 611.66 48.936C613.126 47.528 614.681 46.824 616.324 46.824C617.966 46.824 620.254 48.2907 623.188 51.224C624.009 52.2213 625.182 53.1893 626.708 54.128C628.233 55.008 629.641 55.448 630.932 55.448C636.388 55.448 639.116 53.2187 639.116 48.76C639.116 47.4107 638.353 46.296 636.828 45.416C635.361 44.4773 633.513 43.8027 631.284 43.392C629.054 42.9813 626.649 42.336 624.068 41.456C621.486 40.5173 619.081 39.432 616.852 38.2C614.622 36.968 612.745 35.032 611.22 32.392C609.753 29.6933 609.02 26.4667 609.02 22.712C609.02 17.5493 610.926 13.0613 614.74 9.248C618.612 5.376 623.862 3.43999 630.492 3.43999C634.012 3.43999 637.209 3.90933 640.084 4.848C643.017 5.728 645.041 6.63733 646.156 7.576L648.356 9.248C650.174 10.9493 651.084 12.3867 651.084 13.56C651.084 14.7333 650.38 16.3467 648.972 18.4C646.977 21.3333 644.924 22.8 642.812 22.8C641.58 22.8 640.054 22.2133 638.236 21.04C638.06 20.9227 637.708 20.6293 637.18 20.16C636.71 19.6907 636.27 19.3093 635.86 19.016C634.628 18.2533 633.044 17.872 631.108 17.872C629.23 17.872 627.646 18.3413 626.356 19.28C625.124 20.16 624.508 21.4213 624.508 23.064C624.508 24.648 625.241 25.9387 626.708 26.936C628.233 27.9333 630.11 28.608 632.34 28.96C634.569 29.312 637.004 29.8693 639.644 30.632C642.284 31.336 644.718 32.216 646.948 33.272C649.177 34.328 651.025 36.176 652.492 38.816C654.017 41.3973 654.78 44.5947 654.78 48.408C654.78 52.2213 654.017 55.5947 652.492 58.528C650.966 61.4027 648.972 63.632 646.508 65.216C641.756 68.3253 636.681 69.88 631.284 69.88C628.526 69.88 625.916 69.5573 623.452 68.912C620.988 68.208 618.993 67.3573 617.468 66.36C614.358 64.4827 612.188 62.664 610.956 60.904L610.164 59.936ZM685.71 38.2L679.99 37.848V49.992C679.99 51.576 680.224 52.72 680.694 53.424C681.222 54.128 682.16 54.48 683.51 54.48C684.918 54.48 685.974 54.5387 686.678 54.656C687.44 54.7147 688.232 54.9787 689.054 55.448C690.403 56.2107 691.078 58.176 691.078 61.344C691.078 65.04 690.256 67.2987 688.614 68.12C687.734 68.5307 686.942 68.7947 686.238 68.912C685.592 68.9707 684.624 69 683.334 69C677.232 69 672.598 67.6213 669.43 64.864C666.262 62.1067 664.678 57.4427 664.678 50.872V37.848C663.563 38.024 662.36 38.112 661.07 38.112C659.779 38.112 658.694 37.6133 657.814 36.616C656.992 35.6187 656.582 33.9173 656.582 31.512C656.582 29.1067 656.728 27.376 657.022 26.32C657.315 25.2053 657.726 24.4133 658.254 23.944C659.192 23.1813 660.366 22.8 661.774 22.8L664.678 23.152V14.088C664.678 12.7387 664.707 11.7413 664.766 11.096C664.883 10.4507 665.176 9.74666 665.646 8.984C666.408 7.51733 668.667 6.784 672.422 6.784C676.411 6.784 678.787 7.86933 679.55 10.04C679.843 10.9787 679.99 12.4747 679.99 14.528V23.152C682.571 22.9173 684.507 22.8 685.798 22.8C687.147 22.8 688.144 22.8587 688.79 22.976C689.494 23.0347 690.286 23.2987 691.166 23.768C692.691 24.5307 693.454 26.7893 693.454 30.544C693.454 34.24 692.662 36.4987 691.078 37.32C690.198 37.7307 689.406 37.9947 688.702 38.112C688.056 38.1707 687.059 38.2 685.71 38.2ZM728.409 27.552C728.761 24.2667 731.078 22.624 735.361 22.624C737.649 22.624 739.35 22.8 740.465 23.152C741.58 23.504 742.342 24.12 742.753 25C743.222 25.88 743.486 26.672 743.545 27.376C743.662 28.0213 743.721 29.0187 743.721 30.368V61.168C743.721 62.5173 743.662 63.544 743.545 64.248C743.486 64.8933 743.252 65.656 742.841 66.536C742.02 68.0613 739.996 68.824 736.769 68.824C733.601 68.824 731.46 68.4427 730.345 67.68C729.289 66.8587 728.673 65.6853 728.497 64.16C726.326 67.2693 722.689 68.824 717.585 68.824C712.54 68.824 707.846 66.5067 703.505 61.872C699.164 57.2373 696.993 51.8693 696.993 45.768C696.993 39.608 699.164 34.24 703.505 29.664C707.905 25.0293 712.716 22.712 717.937 22.712C719.932 22.712 721.75 23.064 723.393 23.768C725.036 24.472 726.18 25.1467 726.825 25.792C727.47 26.3787 727.998 26.9653 728.409 27.552ZM712.393 45.856C712.393 47.792 713.156 49.552 714.681 51.136C716.206 52.6613 718.054 53.424 720.225 53.424C722.396 53.424 724.185 52.632 725.593 51.048C727.06 49.464 727.793 47.7333 727.793 45.856C727.793 43.92 727.089 42.1307 725.681 40.488C724.332 38.8453 722.484 38.024 720.137 38.024C717.849 38.024 715.972 38.8453 714.505 40.488C713.097 42.1307 712.393 43.92 712.393 45.856ZM765.255 45.856C765.255 48.32 766.076 50.256 767.719 51.664C769.362 53.0133 771.092 53.688 772.911 53.688C774.788 53.688 776.519 53.16 778.103 52.104C779.746 50.9893 781.066 50.432 782.063 50.432C783.823 50.432 785.964 51.9867 788.487 55.096C789.836 56.7973 790.511 58.3227 790.511 59.672C790.511 61.9013 788.898 63.984 785.671 65.92C782.327 68.2667 778.22 69.44 773.351 69.44C767.895 69.44 762.644 67.4747 757.599 63.544C755.194 61.6667 753.228 59.1733 751.703 56.064C750.178 52.896 749.415 49.4347 749.415 45.68C749.415 41.8667 750.178 38.4347 751.703 35.384C753.228 32.2747 755.194 29.7813 757.599 27.904C762.468 24.032 767.66 22.096 773.175 22.096C775.404 22.096 777.575 22.4187 779.687 23.064C781.799 23.6507 783.354 24.2373 784.351 24.824L785.759 25.704C786.815 26.408 787.636 26.9653 788.223 27.376C789.748 28.5493 790.511 29.8987 790.511 31.424C790.511 32.8907 789.895 34.5627 788.663 36.44C786.551 39.6667 784.527 41.28 782.591 41.28C781.476 41.28 779.892 40.6347 777.839 39.344C776.783 38.3467 775.258 37.848 773.263 37.848C771.327 37.848 769.508 38.552 767.807 39.96C766.106 41.368 765.255 43.3333 765.255 45.856ZM823.476 45.768L835.18 55.448C836.646 56.68 837.556 57.6187 837.908 58.264C838.318 58.9093 838.524 59.5253 838.524 60.112C838.524 61.52 837.614 63.4267 835.796 65.832C833.801 68.296 832.041 69.528 830.516 69.528C829.225 69.528 827.436 68.6773 825.148 66.976L824.268 66.36C822.918 65.2453 820.836 63.3093 818.02 60.552C815.204 57.736 813.062 55.7413 811.596 54.568V61.344C811.596 62.6933 811.537 63.72 811.42 64.424C811.361 65.0693 811.097 65.832 810.628 66.712C809.865 68.2373 807.606 69 803.852 69C800.156 69 797.897 68.208 797.076 66.624C796.665 65.744 796.401 64.9813 796.284 64.336C796.225 63.632 796.196 62.6053 796.196 61.256V8.544C796.196 7.19466 796.225 6.19733 796.284 5.552C796.401 4.848 796.665 4.056 797.076 3.176C797.897 1.592 800.185 0.799997 803.94 0.799997C806.756 0.799997 808.75 1.29866 809.924 2.296C810.921 3.11733 811.449 4.408 811.508 6.168C811.566 6.696 811.596 7.51733 811.596 8.632V36.528C812.652 35.648 814.236 34.152 816.348 32.04C818.518 29.928 820.132 28.432 821.188 27.552L822.244 26.848C824.297 25.264 826.057 24.472 827.524 24.472C828.99 24.472 830.662 25.6747 832.54 28.08C834.476 30.4267 835.444 32.2747 835.444 33.624C835.444 34.9733 834.358 36.5573 832.188 38.376L823.476 45.768ZM865.633 12.24C865.633 10.8907 865.663 9.89333 865.721 9.248C865.839 8.544 866.132 7.752 866.601 6.872C867.423 5.288 869.711 4.496 873.465 4.496C877.572 4.496 880.007 5.58133 880.769 7.752C881.063 8.74933 881.209 10.2747 881.209 12.328V61.256C881.209 62.664 881.151 63.6907 881.033 64.336C880.975 64.9813 880.711 65.744 880.241 66.624C879.42 68.208 877.132 69 873.377 69C869.271 69 866.865 67.8853 866.161 65.656C865.809 64.7173 865.633 63.2213 865.633 61.168V12.24ZM914.019 22.624C919.886 22.624 924.755 24.8827 928.627 29.4C932.558 33.8587 934.523 39.3147 934.523 45.768V61.256C934.523 62.6053 934.464 63.632 934.347 64.336C934.288 64.9813 934.054 65.7147 933.643 66.536C932.822 68.12 930.534 68.912 926.779 68.912C922.614 68.912 920.208 67.8267 919.563 65.656C919.211 64.6587 919.035 63.1627 919.035 61.168V45.68C919.035 43.2747 918.331 41.3973 916.923 40.048C915.574 38.6987 913.726 38.024 911.379 38.024C909.091 38.024 907.214 38.728 905.747 40.136C904.339 41.544 903.635 43.392 903.635 45.68V61.256C903.635 62.6053 903.576 63.632 903.459 64.336C903.4 64.9813 903.136 65.7147 902.667 66.536C901.904 68.12 899.646 68.912 895.891 68.912C892.195 68.912 889.936 68.12 889.115 66.536C888.704 65.656 888.44 64.8933 888.323 64.248C888.264 63.544 888.235 62.5173 888.235 61.168V30.016C888.235 28.7253 888.264 27.7573 888.323 27.112C888.44 26.408 888.734 25.6453 889.203 24.824C890.024 23.3573 892.283 22.624 895.979 22.624C899.558 22.624 901.758 23.2987 902.579 24.648C903.166 25.6453 903.459 26.848 903.459 28.256C903.694 27.8453 904.222 27.2587 905.043 26.496C905.864 25.7333 906.656 25.1173 907.419 24.648C909.414 23.2987 911.614 22.624 914.019 22.624ZM941.954 64.864C940.839 64.16 940.282 63.0453 940.282 61.52C940.282 59.9947 941.397 57.6773 943.626 54.568C944.271 53.5707 945.298 53.072 946.706 53.072C948.173 53.072 950.138 53.8053 952.602 55.272C955.066 56.68 957.295 57.384 959.29 57.384C962.869 57.384 964.658 56.68 964.658 55.272C964.658 54.1573 962.693 53.336 958.762 52.808C955.066 52.28 951.399 50.9013 947.762 48.672C946.061 47.616 944.653 45.9733 943.538 43.744C942.423 41.456 941.866 38.7573 941.866 35.648C941.866 26.3787 948.231 21.744 960.962 21.744C965.127 21.744 969.41 22.7413 973.81 24.736C975.863 25.6747 976.89 26.848 976.89 28.256C976.89 29.664 976.245 31.3947 974.954 33.448C973.663 35.5013 972.343 36.528 970.994 36.528C970.29 36.528 968.97 36.088 967.034 35.208C965.157 34.328 963.103 33.888 960.874 33.888C957.413 33.888 955.682 34.5333 955.682 35.824C955.682 37.584 957.677 38.728 961.666 39.256C965.538 39.6667 969.293 40.7813 972.93 42.6C974.631 43.4213 976.039 44.8587 977.154 46.912C978.327 48.9067 978.914 51.4293 978.914 54.48C978.914 57.5307 978.327 60.1413 977.154 62.312C976.039 64.424 974.455 66.008 972.402 67.064C968.647 68.8827 963.925 69.792 958.234 69.792C952.602 69.792 947.175 68.1493 941.954 64.864ZM999.177 45.856C999.177 48.32 999.998 50.256 1001.64 51.664C1003.28 53.0133 1005.01 53.688 1006.83 53.688C1008.71 53.688 1010.44 53.16 1012.02 52.104C1013.67 50.9893 1014.99 50.432 1015.98 50.432C1017.74 50.432 1019.89 51.9867 1022.41 55.096C1023.76 56.7973 1024.43 58.3227 1024.43 59.672C1024.43 61.9013 1022.82 63.984 1019.59 65.92C1016.25 68.2667 1012.14 69.44 1007.27 69.44C1001.82 69.44 996.566 67.4747 991.521 63.544C989.115 61.6667 987.15 59.1733 985.625 56.064C984.099 52.896 983.337 49.4347 983.337 45.68C983.337 41.8667 984.099 38.4347 985.625 35.384C987.15 32.2747 989.115 29.7813 991.521 27.904C996.39 24.032 1001.58 22.096 1007.1 22.096C1009.33 22.096 1011.5 22.4187 1013.61 23.064C1015.72 23.6507 1017.28 24.2373 1018.27 24.824L1019.68 25.704C1020.74 26.408 1021.56 26.9653 1022.14 27.376C1023.67 28.5493 1024.43 29.8987 1024.43 31.424C1024.43 32.8907 1023.82 34.5627 1022.58 36.44C1020.47 39.6667 1018.45 41.28 1016.51 41.28C1015.4 41.28 1013.81 40.6347 1011.76 39.344C1010.7 38.3467 1009.18 37.848 1007.18 37.848C1005.25 37.848 1003.43 38.552 1001.73 39.96C1000.03 41.368 999.177 43.3333 999.177 45.856ZM1061.62 23.152C1062.74 23.504 1063.65 24.12 1064.35 25C1065.11 25.8213 1065.49 27.1707 1065.49 29.048C1065.49 30.9253 1064.94 32.9787 1063.82 35.208C1062.71 37.4373 1061.09 38.552 1058.98 38.552C1057.93 38.552 1056.9 38.3173 1055.9 37.848C1054.96 37.3787 1053.7 37.144 1052.12 37.144C1050.53 37.144 1049.04 37.7013 1047.63 38.816C1046.28 39.9307 1045.61 41.28 1045.61 42.864V61.344C1045.61 62.6933 1045.55 63.72 1045.43 64.424C1045.37 65.0693 1045.11 65.832 1044.64 66.712C1043.76 68.2373 1041.47 69 1037.77 69C1034.96 69 1032.93 68.5013 1031.7 67.504C1030.76 66.6827 1030.23 65.4213 1030.12 63.72C1030.12 63.1333 1030.12 62.2827 1030.12 61.168V30.28C1030.12 28.9307 1030.15 27.9333 1030.21 27.288C1030.32 26.584 1030.59 25.8213 1031 25C1031.82 23.416 1034.11 22.624 1037.86 22.624C1041.38 22.624 1043.58 23.2987 1044.46 24.648C1045.11 25.5867 1045.43 26.5547 1045.43 27.552C1045.72 27.1413 1046.13 26.6427 1046.66 26.056C1047.25 25.4693 1048.45 24.6773 1050.27 23.68C1052.09 22.6827 1053.67 22.184 1055.02 22.184C1056.43 22.184 1057.6 22.272 1058.54 22.448C1059.48 22.5653 1060.51 22.8 1061.62 23.152ZM1070.34 30.368C1070.34 29.0187 1070.37 28.0213 1070.42 27.376C1070.54 26.672 1070.81 25.88 1071.22 25C1072.04 23.4747 1074.33 22.712 1078.08 22.712C1080.9 22.712 1082.89 23.2107 1084.06 24.208C1085.06 25.0293 1085.59 26.2907 1085.65 27.992C1085.71 28.5787 1085.74 29.4293 1085.74 30.544V61.344C1085.74 62.6933 1085.68 63.72 1085.56 64.424C1085.5 65.0693 1085.24 65.832 1084.77 66.712C1084.01 68.2373 1081.75 69 1077.99 69C1074.3 69 1072.04 68.208 1071.22 66.624C1070.81 65.744 1070.54 64.9813 1070.42 64.336C1070.37 63.6907 1070.34 62.664 1070.34 61.256V30.368ZM1084.77 14.088C1084.36 14.9093 1083.6 15.496 1082.48 15.848C1081.37 16.2 1079.87 16.376 1077.99 16.376C1076.17 16.376 1074.71 16.2 1073.59 15.848C1072.48 15.496 1071.69 14.88 1071.22 14C1070.81 13.12 1070.54 12.3573 1070.42 11.712C1070.37 11.008 1070.34 9.98133 1070.34 8.632C1070.34 7.28266 1070.37 6.28533 1070.42 5.64C1070.54 4.936 1070.81 4.17333 1071.22 3.352C1072.04 1.76799 1074.33 0.975995 1078.08 0.975995C1081.78 0.975995 1084.01 1.76799 1084.77 3.352C1085.24 4.232 1085.5 5.024 1085.56 5.728C1085.68 6.37333 1085.74 7.37066 1085.74 8.71999C1085.74 10.0693 1085.68 11.096 1085.56 11.8C1085.5 12.4453 1085.24 13.208 1084.77 14.088ZM1092.77 81.584V30.192C1092.77 28.8427 1092.8 27.8453 1092.85 27.2C1092.97 26.5547 1093.24 25.8213 1093.65 25C1094.47 23.416 1096.43 22.624 1099.54 22.624C1102.65 22.624 1104.73 23.0347 1105.79 23.856C1106.9 24.6187 1107.55 25.7627 1107.73 27.288C1109.96 24.2373 1113.45 22.712 1118.2 22.712C1123.01 22.712 1127.56 24.9707 1131.84 29.488C1136.12 34.0053 1138.26 39.256 1138.26 45.24C1138.26 51.224 1136.12 56.4747 1131.84 60.992C1127.61 65.5093 1123.1 67.768 1118.29 67.768C1113.48 67.768 1109.98 66.4187 1107.81 63.72V81.496C1107.81 82.8453 1107.76 83.8427 1107.64 84.488C1107.58 85.1333 1107.32 85.8667 1106.85 86.688C1106.44 87.568 1105.7 88.184 1104.65 88.536C1103.59 88.888 1102.15 89.064 1100.33 89.064C1098.52 89.064 1097.05 88.888 1095.93 88.536C1094.88 88.184 1094.12 87.5973 1093.65 86.776C1093.24 85.9547 1092.97 85.2213 1092.85 84.576C1092.8 83.9307 1092.77 82.9333 1092.77 81.584ZM1110.19 40.136C1108.84 41.72 1108.17 43.4507 1108.17 45.328C1108.17 47.2053 1108.84 48.936 1110.19 50.52C1111.6 52.0453 1113.36 52.808 1115.47 52.808C1117.64 52.808 1119.46 52.0453 1120.93 50.52C1122.45 48.9947 1123.21 47.264 1123.21 45.328C1123.21 43.392 1122.51 41.6613 1121.1 40.136C1119.69 38.552 1117.85 37.76 1115.56 37.76C1113.33 37.76 1111.54 38.552 1110.19 40.136ZM1170.05 38.2L1164.33 37.848V49.992C1164.33 51.576 1164.57 52.72 1165.04 53.424C1165.57 54.128 1166.5 54.48 1167.85 54.48C1169.26 54.48 1170.32 54.5387 1171.02 54.656C1171.78 54.7147 1172.58 54.9787 1173.4 55.448C1174.75 56.2107 1175.42 58.176 1175.42 61.344C1175.42 65.04 1174.6 67.2987 1172.96 68.12C1172.08 68.5307 1171.29 68.7947 1170.58 68.912C1169.94 68.9707 1168.97 69 1167.68 69C1161.58 69 1156.94 67.6213 1153.77 64.864C1150.61 62.1067 1149.02 57.4427 1149.02 50.872V37.848C1147.91 38.024 1146.7 38.112 1145.41 38.112C1144.12 38.112 1143.04 37.6133 1142.16 36.616C1141.34 35.6187 1140.93 33.9173 1140.93 31.512C1140.93 29.1067 1141.07 27.376 1141.37 26.32C1141.66 25.2053 1142.07 24.4133 1142.6 23.944C1143.54 23.1813 1144.71 22.8 1146.12 22.8L1149.02 23.152V14.088C1149.02 12.7387 1149.05 11.7413 1149.11 11.096C1149.23 10.4507 1149.52 9.74666 1149.99 8.984C1150.75 7.51733 1153.01 6.784 1156.77 6.784C1160.75 6.784 1163.13 7.86933 1163.89 10.04C1164.19 10.9787 1164.33 12.4747 1164.33 14.528V23.152C1166.91 22.9173 1168.85 22.8 1170.14 22.8C1171.49 22.8 1172.49 22.8587 1173.13 22.976C1173.84 23.0347 1174.63 23.2987 1175.51 23.768C1177.03 24.5307 1177.8 26.7893 1177.8 30.544C1177.8 34.24 1177.01 36.4987 1175.42 37.32C1174.54 37.7307 1173.75 37.9947 1173.05 38.112C1172.4 38.1707 1171.4 38.2 1170.05 38.2ZM1182.66 30.368C1182.66 29.0187 1182.69 28.0213 1182.74 27.376C1182.86 26.672 1183.13 25.88 1183.54 25C1184.36 23.4747 1186.65 22.712 1190.4 22.712C1193.22 22.712 1195.21 23.2107 1196.38 24.208C1197.38 25.0293 1197.91 26.2907 1197.97 27.992C1198.03 28.5787 1198.06 29.4293 1198.06 30.544V61.344C1198.06 62.6933 1198 63.72 1197.88 64.424C1197.82 65.0693 1197.56 65.832 1197.09 66.712C1196.33 68.2373 1194.07 69 1190.31 69C1186.62 69 1184.36 68.208 1183.54 66.624C1183.13 65.744 1182.86 64.9813 1182.74 64.336C1182.69 63.6907 1182.66 62.664 1182.66 61.256V30.368ZM1197.09 14.088C1196.68 14.9093 1195.92 15.496 1194.8 15.848C1193.69 16.2 1192.19 16.376 1190.31 16.376C1188.49 16.376 1187.03 16.2 1185.91 15.848C1184.8 15.496 1184.01 14.88 1183.54 14C1183.13 13.12 1182.86 12.3573 1182.74 11.712C1182.69 11.008 1182.66 9.98133 1182.66 8.632C1182.66 7.28266 1182.69 6.28533 1182.74 5.64C1182.86 4.936 1183.13 4.17333 1183.54 3.352C1184.36 1.76799 1186.65 0.975995 1190.4 0.975995C1194.1 0.975995 1196.33 1.76799 1197.09 3.352C1197.56 4.232 1197.82 5.024 1197.88 5.728C1198 6.37333 1198.06 7.37066 1198.06 8.71999C1198.06 10.0693 1198 11.096 1197.88 11.8C1197.82 12.4453 1197.56 13.208 1197.09 14.088ZM1203.77 45.856C1203.77 38.816 1206.23 33.008 1211.16 28.432C1216.09 23.856 1221.72 21.568 1228.05 21.568C1234.39 21.568 1239.99 23.856 1244.86 28.432C1249.73 32.9493 1252.17 38.728 1252.17 45.768C1252.17 50.6373 1250.91 54.9787 1248.38 58.792C1245.86 62.5467 1242.78 65.3333 1239.14 67.152C1235.56 68.912 1231.84 69.792 1227.97 69.792C1224.09 69.792 1220.34 68.8533 1216.7 66.976C1213.07 65.04 1209.99 62.224 1207.46 58.528C1205 54.7733 1203.77 50.5493 1203.77 45.856ZM1222.16 52.192C1224.04 53.6 1225.94 54.304 1227.88 54.304C1229.81 54.304 1231.75 53.5707 1233.69 52.104C1235.62 50.6373 1236.59 48.4667 1236.59 45.592C1236.59 42.7173 1235.68 40.576 1233.86 39.168C1232.04 37.76 1230.08 37.056 1227.97 37.056C1225.85 37.056 1223.89 37.7893 1222.07 39.256C1220.25 40.7227 1219.34 42.8933 1219.34 45.768C1219.34 48.584 1220.28 50.7253 1222.16 52.192ZM1283.64 22.624C1289.5 22.624 1294.37 24.8827 1298.24 29.4C1302.17 33.8587 1304.14 39.3147 1304.14 45.768V61.256C1304.14 62.6053 1304.08 63.632 1303.96 64.336C1303.91 64.9813 1303.67 65.7147 1303.26 66.536C1302.44 68.12 1300.15 68.912 1296.4 68.912C1292.23 68.912 1289.83 67.8267 1289.18 65.656C1288.83 64.6587 1288.65 63.1627 1288.65 61.168V45.68C1288.65 43.2747 1287.95 41.3973 1286.54 40.048C1285.19 38.6987 1283.34 38.024 1281 38.024C1278.71 38.024 1276.83 38.728 1275.36 40.136C1273.96 41.544 1273.25 43.392 1273.25 45.68V61.256C1273.25 62.6053 1273.19 63.632 1273.08 64.336C1273.02 64.9813 1272.75 65.7147 1272.28 66.536C1271.52 68.12 1269.26 68.912 1265.51 68.912C1261.81 68.912 1259.55 68.12 1258.73 66.536C1258.32 65.656 1258.06 64.8933 1257.94 64.248C1257.88 63.544 1257.85 62.5173 1257.85 61.168V30.016C1257.85 28.7253 1257.88 27.7573 1257.94 27.112C1258.06 26.408 1258.35 25.6453 1258.82 24.824C1259.64 23.3573 1261.9 22.624 1265.6 22.624C1269.17 22.624 1271.37 23.2987 1272.2 24.648C1272.78 25.6453 1273.08 26.848 1273.08 28.256C1273.31 27.8453 1273.84 27.2587 1274.66 26.496C1275.48 25.7333 1276.27 25.1173 1277.04 24.648C1279.03 23.2987 1281.23 22.624 1283.64 22.624ZM112.275 110.408H161.203C163.081 110.408 164.459 110.643 165.339 111.112C166.219 111.523 166.806 112.197 167.099 113.136C167.393 114.075 167.539 115.307 167.539 116.832C167.539 118.357 167.393 119.589 167.099 120.528C166.806 121.408 166.307 122.024 165.603 122.376C164.547 122.904 163.051 123.168 161.115 123.168H144.307V167.432C144.307 168.781 144.249 169.779 144.131 170.424C144.073 171.069 143.809 171.832 143.339 172.712C142.929 173.533 142.166 174.12 141.051 174.472C139.937 174.824 138.47 175 136.651 175C134.833 175 133.366 174.824 132.251 174.472C131.195 174.12 130.433 173.533 129.963 172.712C129.553 171.832 129.289 171.069 129.171 170.424C129.113 169.72 129.083 168.693 129.083 167.344V123.168H112.187C110.31 123.168 108.931 122.963 108.051 122.552C107.171 122.083 106.585 121.379 106.291 120.44C105.998 119.501 105.851 118.269 105.851 116.744C105.851 115.219 105.998 114.016 106.291 113.136C106.585 112.197 107.083 111.552 107.787 111.2C108.843 110.672 110.339 110.408 112.275 110.408ZM193.352 129.152C194.467 129.504 195.376 130.12 196.08 131C196.843 131.821 197.224 133.171 197.224 135.048C197.224 136.925 196.667 138.979 195.552 141.208C194.437 143.437 192.824 144.552 190.712 144.552C189.656 144.552 188.629 144.317 187.632 143.848C186.693 143.379 185.432 143.144 183.848 143.144C182.264 143.144 180.768 143.701 179.36 144.816C178.011 145.931 177.336 147.28 177.336 148.864V167.344C177.336 168.693 177.277 169.72 177.16 170.424C177.101 171.069 176.837 171.832 176.368 172.712C175.488 174.237 173.2 175 169.504 175C166.688 175 164.664 174.501 163.432 173.504C162.493 172.683 161.965 171.421 161.848 169.72C161.848 169.133 161.848 168.283 161.848 167.168V136.28C161.848 134.931 161.877 133.933 161.936 133.288C162.053 132.584 162.317 131.821 162.728 131C163.549 129.416 165.837 128.624 169.592 128.624C173.112 128.624 175.312 129.299 176.192 130.648C176.837 131.587 177.16 132.555 177.16 133.552C177.453 133.141 177.864 132.643 178.392 132.056C178.979 131.469 180.181 130.677 182 129.68C183.819 128.683 185.403 128.184 186.752 128.184C188.16 128.184 189.333 128.272 190.272 128.448C191.211 128.565 192.237 128.8 193.352 129.152ZM229.499 133.552C229.851 130.267 232.168 128.624 236.451 128.624C238.739 128.624 240.44 128.8 241.555 129.152C242.669 129.504 243.432 130.12 243.843 131C244.312 131.88 244.576 132.672 244.635 133.376C244.752 134.021 244.811 135.019 244.811 136.368V167.168C244.811 168.517 244.752 169.544 244.635 170.248C244.576 170.893 244.341 171.656 243.931 172.536C243.109 174.061 241.085 174.824 237.859 174.824C234.691 174.824 232.549 174.443 231.435 173.68C230.379 172.859 229.763 171.685 229.587 170.16C227.416 173.269 223.779 174.824 218.675 174.824C213.629 174.824 208.936 172.507 204.595 167.872C200.253 163.237 198.083 157.869 198.083 151.768C198.083 145.608 200.253 140.24 204.595 135.664C208.995 131.029 213.805 128.712 219.027 128.712C221.021 128.712 222.84 129.064 224.483 129.768C226.125 130.472 227.269 131.147 227.915 131.792C228.56 132.379 229.088 132.965 229.499 133.552ZM213.483 151.856C213.483 153.792 214.245 155.552 215.771 157.136C217.296 158.661 219.144 159.424 221.315 159.424C223.485 159.424 225.275 158.632 226.683 157.048C228.149 155.464 228.883 153.733 228.883 151.856C228.883 149.92 228.179 148.131 226.771 146.488C225.421 144.845 223.573 144.024 221.227 144.024C218.939 144.024 217.061 144.845 215.595 146.488C214.187 148.131 213.483 149.92 213.483 151.856ZM282.889 109.352C283.358 108.472 284.15 107.856 285.265 107.504C286.379 107.152 287.846 106.976 289.665 106.976C291.542 106.976 293.038 107.152 294.153 107.504C295.267 107.856 296.03 108.472 296.441 109.352C296.91 110.232 297.174 111.024 297.233 111.728C297.35 112.373 297.409 113.371 297.409 114.72V167.256C297.409 168.605 297.35 169.632 297.233 170.336C297.174 170.981 296.91 171.715 296.441 172.536C295.561 174.12 293.067 174.912 288.961 174.912C284.913 174.912 282.654 173.475 282.185 170.6C279.721 173.416 276.289 174.824 271.889 174.824C266.609 174.824 261.798 172.536 257.457 167.96C253.115 163.325 250.945 157.957 250.945 151.856C250.945 145.696 253.115 140.299 257.457 135.664C261.857 131.029 266.667 128.712 271.889 128.712C276.23 128.712 279.603 130.179 282.009 133.112V114.632C282.009 113.283 282.038 112.285 282.097 111.64C282.214 110.936 282.478 110.173 282.889 109.352ZM268.633 157.136C270.158 158.72 272.006 159.512 274.177 159.512C276.347 159.512 278.137 158.72 279.545 157.136C281.011 155.552 281.745 153.821 281.745 151.944C281.745 150.008 281.041 148.219 279.633 146.576C278.283 144.933 276.435 144.112 274.089 144.112C271.742 144.112 269.865 144.933 268.457 146.576C267.049 148.16 266.345 149.92 266.345 151.856C266.345 153.792 267.107 155.552 268.633 157.136ZM304.418 136.368C304.418 135.019 304.448 134.021 304.506 133.376C304.624 132.672 304.888 131.88 305.298 131C306.12 129.475 308.408 128.712 312.162 128.712C314.978 128.712 316.973 129.211 318.146 130.208C319.144 131.029 319.672 132.291 319.73 133.992C319.789 134.579 319.818 135.429 319.818 136.544V167.344C319.818 168.693 319.76 169.72 319.642 170.424C319.584 171.069 319.32 171.832 318.85 172.712C318.088 174.237 315.829 175 312.074 175C308.378 175 306.12 174.208 305.298 172.624C304.888 171.744 304.624 170.981 304.506 170.336C304.448 169.691 304.418 168.664 304.418 167.256V136.368ZM318.85 120.088C318.44 120.909 317.677 121.496 316.562 121.848C315.448 122.2 313.952 122.376 312.074 122.376C310.256 122.376 308.789 122.2 307.674 121.848C306.56 121.496 305.768 120.88 305.298 120C304.888 119.12 304.624 118.357 304.506 117.712C304.448 117.008 304.418 115.981 304.418 114.632C304.418 113.283 304.448 112.285 304.506 111.64C304.624 110.936 304.888 110.173 305.298 109.352C306.12 107.768 308.408 106.976 312.162 106.976C315.858 106.976 318.088 107.768 318.85 109.352C319.32 110.232 319.584 111.024 319.642 111.728C319.76 112.373 319.818 113.371 319.818 114.72C319.818 116.069 319.76 117.096 319.642 117.8C319.584 118.445 319.32 119.208 318.85 120.088ZM352.632 128.624C358.499 128.624 363.368 130.883 367.24 135.4C371.171 139.859 373.136 145.315 373.136 151.768V167.256C373.136 168.605 373.077 169.632 372.96 170.336C372.901 170.981 372.667 171.715 372.256 172.536C371.435 174.12 369.147 174.912 365.392 174.912C361.227 174.912 358.821 173.827 358.176 171.656C357.824 170.659 357.648 169.163 357.648 167.168V151.68C357.648 149.275 356.944 147.397 355.536 146.048C354.187 144.699 352.339 144.024 349.992 144.024C347.704 144.024 345.827 144.728 344.36 146.136C342.952 147.544 342.248 149.392 342.248 151.68V167.256C342.248 168.605 342.189 169.632 342.072 170.336C342.013 170.981 341.749 171.715 341.28 172.536C340.517 174.12 338.259 174.912 334.504 174.912C330.808 174.912 328.549 174.12 327.728 172.536C327.317 171.656 327.053 170.893 326.936 170.248C326.877 169.544 326.848 168.517 326.848 167.168V136.016C326.848 134.725 326.877 133.757 326.936 133.112C327.053 132.408 327.347 131.645 327.816 130.824C328.637 129.357 330.896 128.624 334.592 128.624C338.171 128.624 340.371 129.299 341.192 130.648C341.779 131.645 342.072 132.848 342.072 134.256C342.307 133.845 342.835 133.259 343.656 132.496C344.477 131.733 345.269 131.117 346.032 130.648C348.027 129.299 350.227 128.624 352.632 128.624ZM409.607 169.192C407.378 172.125 403.829 173.592 398.959 173.592C394.09 173.592 389.514 171.363 385.231 166.904C381.007 162.387 378.895 157.136 378.895 151.152C378.895 145.168 381.037 139.917 385.319 135.4C389.602 130.883 394.295 128.624 399.399 128.624C401.394 128.624 403.213 129.005 404.855 129.768C406.498 130.472 407.613 131.147 408.199 131.792C408.845 132.379 409.343 132.936 409.695 133.464C409.871 131.821 410.458 130.589 411.455 129.768C412.511 128.888 414.183 128.448 416.471 128.448C418.759 128.448 420.431 128.624 421.487 128.976C422.543 129.328 423.277 129.944 423.687 130.824C424.157 131.645 424.421 132.379 424.479 133.024C424.597 133.669 424.655 134.667 424.655 136.016V172.448C424.655 179.195 422.309 184.621 417.615 188.728C412.922 192.893 407.642 194.976 401.775 194.976C397.317 194.976 393.063 193.891 389.015 191.72C384.967 189.549 382.943 187.584 382.943 185.824C382.943 183.536 383.823 181.512 385.583 179.752C386.698 178.52 387.549 177.669 388.135 177.2C388.781 176.731 389.514 176.496 390.335 176.496C391.157 176.496 392.007 176.848 392.887 177.552C395.703 179.723 398.754 180.808 402.039 180.808C404.269 180.808 406.087 179.928 407.495 178.168C408.903 176.408 409.607 174.296 409.607 171.832V169.192ZM393.943 151.24C393.943 153.117 394.677 154.819 396.143 156.344C397.669 157.869 399.487 158.632 401.599 158.632C403.77 158.632 405.559 157.869 406.967 156.344C408.375 154.76 409.079 153.059 409.079 151.24C409.079 149.363 408.405 147.632 407.055 146.048C405.706 144.405 403.887 143.584 401.599 143.584C399.311 143.584 397.463 144.376 396.055 145.96C394.647 147.544 393.943 149.304 393.943 151.24ZM501.558 123.52C503.083 126.629 503.846 130.091 503.846 133.904C503.846 137.717 503.083 141.179 501.558 144.288C500.032 147.339 498.067 149.773 495.662 151.592C490.792 155.347 485.747 157.224 480.526 157.224H469.526V167.168C469.526 168.517 469.467 169.544 469.35 170.248C469.291 170.893 469.027 171.656 468.558 172.536C467.736 174.12 465.448 174.912 461.694 174.912C457.587 174.912 455.182 173.827 454.478 171.656C454.126 170.659 453.95 169.133 453.95 167.08V118.24C453.95 116.891 453.979 115.893 454.038 115.248C454.155 114.544 454.448 113.752 454.918 112.872C455.739 111.288 458.027 110.496 461.782 110.496H480.614C485.776 110.496 490.792 112.373 495.662 116.128C498.067 117.947 500.032 120.411 501.558 123.52ZM480.614 141.648C482.374 141.648 484.104 141.003 485.806 139.712C487.507 138.421 488.358 136.485 488.358 133.904C488.358 131.323 487.507 129.387 485.806 128.096C484.104 126.747 482.344 126.072 480.526 126.072H469.526V141.648H480.614ZM509.551 114.544C509.551 113.195 509.581 112.197 509.639 111.552C509.757 110.848 510.021 110.056 510.431 109.176C511.253 107.592 513.541 106.8 517.295 106.8C520.874 106.8 523.103 107.592 523.983 109.176C524.453 110.056 524.717 110.848 524.775 111.552C524.893 112.256 524.951 113.283 524.951 114.632V155.376C524.951 157.488 525.127 158.837 525.479 159.424C525.831 159.952 526.594 160.216 527.767 160.216C528.999 160.216 529.821 160.275 530.231 160.392C530.642 160.451 531.141 160.685 531.727 161.096C532.901 161.859 533.487 163.941 533.487 167.344C533.487 171.04 532.901 173.299 531.727 174.12C530.202 175.176 526.565 175.352 520.815 174.648C516.298 174.061 513.365 172.565 512.015 170.16C510.373 167.285 509.551 162.709 509.551 156.432V114.544ZM568.436 133.552C568.788 130.267 571.106 128.624 575.388 128.624C577.676 128.624 579.378 128.8 580.492 129.152C581.607 129.504 582.37 130.12 582.78 131C583.25 131.88 583.514 132.672 583.572 133.376C583.69 134.021 583.748 135.019 583.748 136.368V167.168C583.748 168.517 583.69 169.544 583.572 170.248C583.514 170.893 583.279 171.656 582.868 172.536C582.047 174.061 580.023 174.824 576.796 174.824C573.628 174.824 571.487 174.443 570.372 173.68C569.316 172.859 568.7 171.685 568.524 170.16C566.354 173.269 562.716 174.824 557.612 174.824C552.567 174.824 547.874 172.507 543.532 167.872C539.191 163.237 537.02 157.869 537.02 151.768C537.02 145.608 539.191 140.24 543.532 135.664C547.932 131.029 552.743 128.712 557.964 128.712C559.959 128.712 561.778 129.064 563.42 129.768C565.063 130.472 566.207 131.147 566.852 131.792C567.498 132.379 568.026 132.965 568.436 133.552ZM552.42 151.856C552.42 153.792 553.183 155.552 554.708 157.136C556.234 158.661 558.082 159.424 560.252 159.424C562.423 159.424 564.212 158.632 565.62 157.048C567.087 155.464 567.82 153.733 567.82 151.856C567.82 149.92 567.116 148.131 565.708 146.488C564.359 144.845 562.511 144.024 560.164 144.024C557.876 144.024 555.999 144.845 554.532 146.488C553.124 148.131 552.42 149.92 552.42 151.856ZM617.69 144.2L611.97 143.848V155.992C611.97 157.576 612.205 158.72 612.674 159.424C613.202 160.128 614.141 160.48 615.49 160.48C616.898 160.48 617.954 160.539 618.658 160.656C619.421 160.715 620.213 160.979 621.034 161.448C622.384 162.211 623.058 164.176 623.058 167.344C623.058 171.04 622.237 173.299 620.594 174.12C619.714 174.531 618.922 174.795 618.218 174.912C617.573 174.971 616.605 175 615.314 175C609.213 175 604.578 173.621 601.41 170.864C598.242 168.107 596.658 163.443 596.658 156.872V143.848C595.544 144.024 594.341 144.112 593.05 144.112C591.76 144.112 590.674 143.613 589.794 142.616C588.973 141.619 588.562 139.917 588.562 137.512C588.562 135.107 588.709 133.376 589.002 132.32C589.296 131.205 589.706 130.413 590.234 129.944C591.173 129.181 592.346 128.8 593.754 128.8L596.658 129.152V120.088C596.658 118.739 596.688 117.741 596.746 117.096C596.864 116.451 597.157 115.747 597.626 114.984C598.389 113.517 600.648 112.784 604.402 112.784C608.392 112.784 610.768 113.869 611.53 116.04C611.824 116.979 611.97 118.475 611.97 120.528V129.152C614.552 128.917 616.488 128.8 617.778 128.8C619.128 128.8 620.125 128.859 620.77 128.976C621.474 129.035 622.266 129.299 623.146 129.768C624.672 130.531 625.434 132.789 625.434 136.544C625.434 140.24 624.642 142.499 623.058 143.32C622.178 143.731 621.386 143.995 620.682 144.112C620.037 144.171 619.04 144.2 617.69 144.2ZM657.397 128.712C661.445 128.712 663.821 129.827 664.525 132.056C664.877 133.171 665.053 134.637 665.053 136.456C665.053 138.275 664.848 139.741 664.437 140.856C664.085 141.912 663.499 142.675 662.677 143.144C661.445 143.848 659.656 144.2 657.309 144.2L651.677 143.848V167.432C651.677 169.661 651.384 171.333 650.797 172.448C650.269 173.504 649.419 174.208 648.245 174.56C647.131 174.912 645.664 175.088 643.845 175.088C642.027 175.088 640.56 174.912 639.445 174.56C638.389 174.149 637.627 173.533 637.157 172.712C636.688 171.832 636.395 171.04 636.277 170.336C636.219 169.632 636.189 168.605 636.189 167.256V143.936H633.021C631.496 143.819 630.411 143.467 629.765 142.88C628.651 141.765 628.093 139.624 628.093 136.456C628.093 131.645 629.824 129.24 633.285 129.24H636.189V124.576C636.189 120.059 637.803 115.981 641.029 112.344C644.256 108.648 648.92 106.8 655.021 106.8C656.371 106.8 657.368 106.859 658.013 106.976C658.717 107.035 659.509 107.299 660.389 107.768C661.973 108.531 662.765 110.789 662.765 114.544C662.765 117.36 662.267 119.384 661.269 120.616C660.448 121.555 659.157 122.083 657.397 122.2C656.869 122.2 656.048 122.2 654.933 122.2C652.763 122.2 651.677 122.933 651.677 124.4V129.24L657.397 128.712ZM666.872 151.856C666.872 144.816 669.336 139.008 674.264 134.432C679.192 129.856 684.824 127.568 691.16 127.568C697.496 127.568 703.099 129.856 707.968 134.432C712.837 138.949 715.272 144.728 715.272 151.768C715.272 156.637 714.011 160.979 711.488 164.792C708.965 168.547 705.885 171.333 702.248 173.152C698.669 174.912 694.944 175.792 691.072 175.792C687.2 175.792 683.445 174.853 679.808 172.976C676.171 171.04 673.091 168.224 670.568 164.528C668.104 160.773 666.872 156.549 666.872 151.856ZM685.264 158.192C687.141 159.6 689.048 160.304 690.984 160.304C692.92 160.304 694.856 159.571 696.792 158.104C698.728 156.637 699.696 154.467 699.696 151.592C699.696 148.717 698.787 146.576 696.968 145.168C695.149 143.76 693.184 143.056 691.072 143.056C688.96 143.056 686.995 143.789 685.176 145.256C683.357 146.723 682.448 148.893 682.448 151.768C682.448 154.584 683.387 156.725 685.264 158.192ZM752.462 129.152C753.576 129.504 754.486 130.12 755.19 131C755.952 131.821 756.334 133.171 756.334 135.048C756.334 136.925 755.776 138.979 754.662 141.208C753.547 143.437 751.934 144.552 749.822 144.552C748.766 144.552 747.739 144.317 746.742 143.848C745.803 143.379 744.542 143.144 742.958 143.144C741.374 143.144 739.878 143.701 738.47 144.816C737.12 145.931 736.446 147.28 736.446 148.864V167.344C736.446 168.693 736.387 169.72 736.27 170.424C736.211 171.069 735.947 171.832 735.478 172.712C734.598 174.237 732.31 175 728.614 175C725.798 175 723.774 174.501 722.542 173.504C721.603 172.683 721.075 171.421 720.958 169.72C720.958 169.133 720.958 168.283 720.958 167.168V136.28C720.958 134.931 720.987 133.933 721.046 133.288C721.163 132.584 721.427 131.821 721.838 131C722.659 129.416 724.947 128.624 728.702 128.624C732.222 128.624 734.422 129.299 735.302 130.648C735.947 131.587 736.27 132.555 736.27 133.552C736.563 133.141 736.974 132.643 737.502 132.056C738.088 131.469 739.291 130.677 741.11 129.68C742.928 128.683 744.512 128.184 745.862 128.184C747.27 128.184 748.443 128.272 749.382 128.448C750.32 128.565 751.347 128.8 752.462 129.152ZM776.312 134.784C779.07 130.619 782.384 128.536 786.256 128.536C792.24 128.536 796.699 131.088 799.632 136.192C800.278 135.312 801.04 134.403 801.92 133.464C802.859 132.467 804.326 131.411 806.32 130.296C808.315 129.123 810.368 128.536 812.48 128.536C817.174 128.536 821.104 130.355 824.272 133.992C827.44 137.571 829.024 143.525 829.024 151.856V167.256C829.024 168.605 828.966 169.632 828.848 170.336C828.79 170.981 828.526 171.744 828.056 172.624C827.294 174.208 825.035 175 821.28 175C817.584 175 815.326 174.179 814.504 172.536C814.094 171.656 813.83 170.893 813.712 170.248C813.654 169.544 813.624 168.517 813.624 167.168V151.768C813.624 146.664 811.806 144.112 808.168 144.112C806.115 144.112 804.707 144.787 803.944 146.136C803.24 147.485 802.888 149.392 802.888 151.856V167.256C802.888 168.664 802.83 169.691 802.712 170.336C802.654 170.981 802.39 171.744 801.92 172.624C801.099 174.208 798.811 175 795.056 175C791.36 175 789.102 174.179 788.28 172.536C787.87 171.656 787.606 170.893 787.488 170.248C787.43 169.544 787.4 168.517 787.4 167.168V151.768C787.4 146.664 785.582 144.112 781.944 144.112C778.424 144.112 776.664 146.664 776.664 151.768V167.344C776.664 168.693 776.606 169.72 776.488 170.424C776.43 171.069 776.166 171.832 775.696 172.712C774.816 174.237 772.528 175 768.832 175C765.136 175 762.878 174.208 762.056 172.624C761.646 171.744 761.382 170.981 761.264 170.336C761.206 169.691 761.176 168.664 761.176 167.256V136.28C761.176 134.931 761.206 133.933 761.264 133.288C761.382 132.584 761.675 131.821 762.144 131C763.024 129.416 765.107 128.624 768.392 128.624C771.678 128.624 773.819 129.152 774.816 130.208C775.814 131.264 776.312 132.789 776.312 134.784Z" fill="#E7AF4E"/>
</svg>
