<svg width="38" height="38" viewBox="0 0 38 38" fill="none" xmlns="http://www.w3.org/2000/svg">
<path d="M13.7285 0.791992H33.8535C34.7431 0.791992 35.5962 1.14538 36.2253 1.7744C36.8543 2.40343 37.2077 3.25658 37.2077 4.14616V24.2712C37.2077 25.1607 36.8543 26.0139 36.2253 26.6429C35.5962 27.2719 34.7431 27.6253 33.8535 27.6253H13.7285C12.8389 27.6253 11.9858 27.2719 11.3568 26.6429C10.7277 26.0139 10.3743 25.1607 10.3743 24.2712V4.14616C10.3743 3.25658 10.7277 2.40343 11.3568 1.7744C11.9858 1.14538 12.8389 0.791992 13.7285 0.791992ZM13.7285 3.66699C13.6014 3.66699 13.4796 3.71748 13.3897 3.80734C13.2998 3.8972 13.2493 4.01908 13.2493 4.14616V24.2712C13.2493 24.3341 13.2617 24.3964 13.2858 24.4545C13.3099 24.5127 13.3452 24.5655 13.3897 24.61C13.4342 24.6545 13.487 24.6898 13.5451 24.7139C13.6033 24.7379 13.6656 24.7503 13.7285 24.7503H33.8535C33.9806 24.7503 34.1025 24.6998 34.1923 24.61C34.2822 24.5201 34.3327 24.3982 34.3327 24.2712V4.14616C34.3327 4.01908 34.2822 3.8972 34.1923 3.80734C34.1025 3.71748 33.9806 3.66699 33.8535 3.66699H13.7285ZM24.7493 30.5003C24.7493 30.1191 24.9008 29.7534 25.1704 29.4839C25.44 29.2143 25.8056 29.0628 26.1868 29.0628C26.5681 29.0628 26.9337 29.2143 27.2033 29.4839C27.4729 29.7534 27.6243 30.1191 27.6243 30.5003V33.8545C27.6243 34.7441 27.271 35.5972 26.6419 36.2262C26.0129 36.8553 25.1598 37.2087 24.2702 37.2087H4.14518C3.2556 37.2087 2.40246 36.8553 1.77343 36.2262C1.1444 35.5972 0.791016 34.7441 0.791016 33.8545V13.7295C0.791016 12.8399 1.1444 11.9868 1.77343 11.3577C2.40246 10.7287 3.2556 10.3753 4.14518 10.3753H7.49935C7.8806 10.3753 8.24623 10.5268 8.51582 10.7964C8.7854 11.0659 8.93685 11.4316 8.93685 11.8128C8.93685 12.1941 8.7854 12.5597 8.51582 12.8293C8.24623 13.0989 7.8806 13.2503 7.49935 13.2503H4.14518C4.0181 13.2503 3.89622 13.3008 3.80636 13.3907C3.7165 13.4805 3.66602 13.6024 3.66602 13.7295V33.8545C3.66602 33.9816 3.7165 34.1035 3.80636 34.1933C3.89622 34.2832 4.0181 34.3337 4.14518 34.3337H24.2702C24.3973 34.3337 24.5191 34.2832 24.609 34.1933C24.6989 34.1035 24.7493 33.9816 24.7493 33.8545V30.5003Z" fill="#7A5651"/>
</svg>
