<svg width="51" height="51" viewBox="0 0 51 51" fill="none" xmlns="http://www.w3.org/2000/svg">
<path d="M47.2117 22.7566L42.6242 19.7191C41.8117 19.1816 41.4117 18.2066 41.5992 17.2441L42.6867 11.8441C42.8867 10.8316 42.5742 9.78164 41.8492 9.04414C41.1117 8.30664 40.0742 7.99414 39.0492 8.20664L33.6492 9.29414C32.6867 9.49414 31.7242 9.08164 31.1742 8.26914L28.1242 3.68164C27.5492 2.81914 26.5867 2.30664 25.5492 2.30664C24.5117 2.30664 23.5492 2.81914 22.9742 3.68164L19.9242 8.26914C19.3867 9.08164 18.4117 9.48164 17.4492 9.29414L12.0492 8.20664C11.0367 8.00664 9.98672 8.31914 9.24922 9.04414C8.51172 9.78164 8.19922 10.8191 8.41172 11.8441L9.49922 17.2441C9.68672 18.2066 9.28672 19.1691 8.47422 19.7191L3.88672 22.7691C3.02422 23.3441 2.51172 24.3066 2.51172 25.3441C2.51172 26.3816 3.02422 27.3441 3.88672 27.9191L8.47422 30.9691C9.28672 31.5066 9.68672 32.4816 9.49922 33.4441L8.41172 38.8441C8.21172 39.8566 8.52422 40.9066 9.24922 41.6441C9.98672 42.3816 11.0242 42.6941 12.0492 42.4816L17.4492 41.3941C18.4117 41.1941 19.3742 41.6066 19.9242 42.4191L22.9742 47.0066C23.5492 47.8691 24.5117 48.3816 25.5492 48.3816C26.5867 48.3816 27.5492 47.8691 28.1242 47.0066L31.1742 42.4191C31.7117 41.6066 32.6867 41.2066 33.6492 41.3941L39.0492 42.4816C40.0617 42.6816 41.1117 42.3691 41.8492 41.6441C42.5867 40.9066 42.8992 39.8691 42.6867 38.8441L41.5992 33.4441C41.4117 32.4816 41.8117 31.5191 42.6242 30.9691L47.2117 27.9191C48.0742 27.3441 48.5867 26.3816 48.5867 25.3441C48.5867 24.3066 48.0742 23.3316 47.2117 22.7566ZM35.0367 21.6816L24.7117 32.1816C24.4242 32.4816 24.0367 32.6316 23.6367 32.6316C23.2867 32.6316 22.9242 32.5066 22.6492 32.2566L15.8992 26.2941C15.2742 25.7441 15.2242 24.7941 15.7617 24.1816C16.3117 23.5566 17.2617 23.5066 17.8742 24.0441L23.5617 29.0691L32.8867 19.5816C33.4617 18.9941 34.4117 18.9816 35.0117 19.5691C35.6117 20.1316 35.6117 21.0816 35.0367 21.6816Z" fill="#C68E2C"/>
</svg>
