<svg width="25" height="25" viewBox="0 0 25 25" fill="none" xmlns="http://www.w3.org/2000/svg">
<g clip-path="url(#clip0_813_2886)">
<path d="M21.5479 24.7879H3.45191C1.66631 24.7879 0.211914 23.3335 0.211914 21.5479V18.2599C0.211914 17.6623 0.694314 17.1799 1.29191 17.1799C1.88951 17.1799 2.37191 17.6623 2.37191 18.2599V21.5479C2.37191 22.1431 2.85671 22.6279 3.45191 22.6279H21.5479C22.1431 22.6279 22.6279 22.1431 22.6279 21.5479V3.45191C22.6279 2.85671 22.1431 2.37191 21.5479 2.37191H3.45191C2.85671 2.37191 2.37191 2.85671 2.37191 3.45191V6.73991C2.37191 7.33751 1.88951 7.81991 1.29191 7.81991C0.694314 7.81991 0.211914 7.33751 0.211914 6.73991V3.45191C0.211914 1.66631 1.66631 0.211914 3.45191 0.211914H21.5479C23.3335 0.211914 24.7879 1.66631 24.7879 3.45191V21.5479C24.7879 23.3335 23.3335 24.7879 21.5479 24.7879Z" fill="#7A5651"/>
<path d="M1.29195 13.6045C0.69915 13.6045 0.21675 13.1245 0.21195 12.5317C0.20715 11.9341 0.68955 11.4493 1.28475 11.4445L13.7384 11.3653L10.6016 8.2309C10.1792 7.8085 10.1792 7.1245 10.6016 6.7045C11.024 6.2821 11.708 6.2821 12.128 6.7045L17.0912 11.6677C17.3983 11.9749 17.492 12.4381 17.3264 12.8413C17.1608 13.2445 16.7696 13.5085 16.3351 13.5109L1.29915 13.6069C1.29675 13.6045 1.29435 13.6045 1.29195 13.6045Z" fill="#7A5651"/>
<path d="M11.3671 18.5675C11.0911 18.5675 10.8151 18.4619 10.6039 18.2507C10.1815 17.8283 10.1815 17.1443 10.6039 16.7243L15.5695 11.7563C15.9919 11.3339 16.6759 11.3339 17.0959 11.7563C17.5183 12.1787 17.5183 12.8627 17.0959 13.2827L12.1303 18.2507C11.9191 18.4619 11.6431 18.5675 11.3671 18.5675Z" fill="#7A5651"/>
</g>
<defs>
<clipPath id="clip0_813_2886">
<rect width="24.576" height="24.576" fill="white" transform="translate(0.211914 0.211914)"/>
</clipPath>
</defs>
</svg>
