<svg width="81" height="93" viewBox="0 0 81 93" fill="none" xmlns="http://www.w3.org/2000/svg">
<g clip-path="url(#clip0_669_6484)">
<path d="M49.5378 50.0419L38.3314 40.9609C37.3653 40.188 36.2061 39.6084 34.8536 39.6084C33.5011 39.6084 32.3418 40.188 31.1825 40.9609L20.9422 50.0419C19.3965 51.3944 19.2033 53.9062 20.5558 55.6451C21.9083 57.1908 24.4201 57.384 26.159 56.0315L31.3757 51.3944V66.8514C31.3757 68.9768 33.1147 70.7157 35.24 70.7157C37.3653 70.7157 39.1043 68.9768 39.1043 66.8514V51.7808L44.5142 56.0315C45.2871 56.6111 46.0599 56.8043 47.026 56.8043C48.1853 56.8043 49.3445 56.2247 50.1174 55.2586C51.4699 53.7129 51.0835 51.3944 49.5378 50.0419Z" fill="#4FE48B"/>
<path d="M60.5482 28.0161H40.454L35.0441 19.1283C34.8509 18.9351 34.8509 18.7419 34.6577 18.7419C32.5323 16.0369 29.2477 14.4912 25.7699 14.4912H4.32324C2.1979 14.4912 0.458984 16.2301 0.458984 18.3555V70.7162C0.458984 75.9329 4.70967 80.1836 9.92641 80.1836H60.355C65.5717 80.1836 69.8224 75.9329 69.8224 70.7162V37.6768C70.0156 32.46 65.7649 28.0161 60.5482 28.0161ZM25.9631 22.2197C27.1224 22.2197 28.0884 22.6062 28.8613 23.379L31.5663 28.0161H8.1875V22.2197H25.9631ZM62.2871 70.7162C62.2871 71.6822 61.5143 72.4551 60.5482 72.4551H10.1196C9.15356 72.4551 8.38071 71.6822 8.38071 70.7162V35.7446H60.7414C61.7075 35.7446 62.4803 36.5175 62.4803 37.4835V70.7162H62.2871Z" fill="#4FE48B"/>
</g>
<defs>
<clipPath id="clip0_669_6484">
<rect width="80" height="93" fill="white" transform="translate(0.257812)"/>
</clipPath>
</defs>
</svg>
