<svg width="34" height="35" viewBox="0 0 34 35" fill="none" xmlns="http://www.w3.org/2000/svg">
<path fill-rule="evenodd" clip-rule="evenodd" d="M5.66667 29.6143C4.88426 29.6143 4.25 28.98 4.25 28.1976V22.5309C4.25 21.7485 4.88426 21.1143 5.66667 21.1143H6.375V27.4893H27.625V21.1143H29.75V28.1976C29.75 28.98 29.1157 29.6143 28.3333 29.6143H5.66667Z" fill="#333333"/>
<path d="M17 8.31674L22.2591 13.5758L22.76 13.075C23.3132 12.5217 23.3132 11.6247 22.76 11.0715L17 5.31153L11.24 11.0715C10.6868 11.6248 10.6868 12.5217 11.24 13.075L11.7409 13.5758L17 8.31674Z" fill="#333333"/>
<path d="M15.9375 6.58301V22.1663H18.0625V6.58301H15.9375Z" fill="#333333"/>
</svg>
