<svg width="32" height="32" viewBox="0 0 32 32" fill="none" xmlns="http://www.w3.org/2000/svg">
<path d="M29.8489 2.20898H2.12173C0.964423 2.20898 0 3.17341 0 4.33071V19.4239L7.5225 14.5536L11.1391 18.7488L19.192 11.1299L31.9706 19.1828V4.33071C32.0188 3.17341 31.0544 2.20898 29.8489 2.20898ZM5.59365 13.4445C4.0988 13.4445 2.94149 12.239 2.94149 10.7923C2.94149 9.34571 4.14702 8.14018 5.59365 8.14018C7.04029 8.14018 8.24582 9.34571 8.24582 10.7923C8.24582 12.239 7.08851 13.4445 5.59365 13.4445Z" fill="#C68E2C"/>
<path d="M19.4331 13.252L11.0426 21.2084L7.23317 16.7721L0 21.4978V27.6701C0 28.8274 0.964423 29.7918 2.12173 29.7918H29.8489C31.0062 29.7918 31.9706 28.8274 31.9706 27.6701V21.2084L19.4331 13.252Z" fill="#C68E2C"/>
</svg>
