<svg width="22" height="38" viewBox="0 0 22 38" fill="none" xmlns="http://www.w3.org/2000/svg">
<path d="M1.43437 17.657L0.0992184 18.9902L18.4783 37.375C18.8329 37.7261 19.3117 37.9231 19.8107 37.9231C20.3097 37.9231 20.7885 37.7261 21.143 37.375C21.3189 37.2004 21.4585 36.9928 21.5538 36.764C21.6491 36.5353 21.6983 36.2899 21.6984 36.0421C21.6986 35.7943 21.6498 35.5489 21.5548 35.32C21.4598 35.0912 21.3205 34.8833 21.1449 34.7085L5.43607 18.994L21.1449 3.29273C21.3206 3.11816 21.46 2.91058 21.5551 2.68192C21.6502 2.45327 21.6992 2.20806 21.6992 1.9604C21.6992 1.71274 21.6502 1.46753 21.5551 1.23888C21.46 1.01022 21.3206 0.802641 21.1449 0.628075C20.7908 0.275874 20.3118 0.0778568 19.8124 0.0771503C19.3129 0.0764439 18.8335 0.273106 18.4783 0.624304L1.51169 17.5834L1.43437 17.6588V17.657Z" fill="#7A5651"/>
</svg>
