<svg width="21" height="38" viewBox="0 0 21 38" fill="none" xmlns="http://www.w3.org/2000/svg">
<path d="M19.463 17.6658L20.6992 18.9904L3.68151 37.2556C3.35324 37.6045 2.90989 37.8002 2.44787 37.8002C1.98585 37.8002 1.54251 37.6045 1.21424 37.2556C1.05141 37.0822 0.922151 36.8759 0.833889 36.6486C0.745627 36.4214 0.700107 36.1776 0.699944 35.9314C0.699782 35.6852 0.744982 35.4414 0.832944 35.214C0.920905 34.9866 1.04989 34.7802 1.21249 34.6064L15.7577 18.9941L1.21249 3.39488C1.04983 3.22145 0.920745 3.01521 0.832656 2.78804C0.744568 2.56087 0.699219 2.31726 0.699219 2.07121C0.699219 1.82516 0.744568 1.58154 0.832656 1.35438C0.920745 1.12721 1.04983 0.920973 1.21249 0.747542C1.54038 0.39763 1.98384 0.200899 2.44628 0.200197C2.90873 0.199495 3.3527 0.394879 3.68151 0.743795L19.3914 17.5927L19.463 17.6676V17.6658Z" fill="#7A5651"/>
</svg>
