<svg width="42" height="42" viewBox="0 0 42 42" fill="none" xmlns="http://www.w3.org/2000/svg">
<path d="M13.3091 12.459C13.3091 12.1192 13.4441 11.7933 13.6844 11.553C13.9246 11.3127 14.2505 11.1777 14.5903 11.1777H26.547C26.8868 11.1777 27.2127 11.3127 27.4529 11.553C27.6932 11.7933 27.8282 12.1192 27.8282 12.459C27.8282 12.7988 27.6932 13.1247 27.4529 13.365C27.2127 13.6052 26.8868 13.7402 26.547 13.7402H14.5903C14.2505 13.7402 13.9246 13.6052 13.6844 13.365C13.4441 13.1247 13.3091 12.7988 13.3091 12.459ZM14.5903 18.0094C14.2505 18.0094 13.9246 18.1443 13.6844 18.3846C13.4441 18.6249 13.3091 18.9508 13.3091 19.2906C13.3091 19.6304 13.4441 19.9563 13.6844 20.1966C13.9246 20.4369 14.2505 20.5719 14.5903 20.5719H19.7153C20.0551 20.5719 20.381 20.4369 20.6213 20.1966C20.8616 19.9563 20.9966 19.6304 20.9966 19.2906C20.9966 18.9508 20.8616 18.6249 20.6213 18.3846C20.381 18.1443 20.0551 18.0094 19.7153 18.0094H14.5903Z" fill="#333333"/>
<path d="M22.815 2.63477H21.3287C17.9847 2.63477 15.353 2.63477 13.2953 2.89614C11.1889 3.16264 9.49254 3.72127 8.14979 4.98458C6.79423 6.2607 6.18692 7.88789 5.89736 9.90458C5.62061 11.8546 5.62061 14.348 5.62061 17.4819V28.188C5.62061 29.5974 5.62061 30.7172 5.67954 31.6269C5.74104 32.5571 5.86917 33.3566 6.16642 34.1125C6.61668 35.218 7.29897 36.214 8.16721 37.0331C9.03544 37.8523 10.0694 38.4756 11.1992 38.8608C12.6342 39.3656 14.3767 39.3656 17.1698 39.3656H18.9072C23.2916 39.3605 25.9259 39.3016 28.1014 38.538C31.8862 37.2106 34.9023 34.3893 36.3322 30.7761C36.8037 29.5897 37.0164 28.3033 37.1214 26.7223C37.2239 25.1591 37.2239 23.227 37.2239 20.7363V16.2596C37.2239 13.7073 37.2239 11.6778 37.0343 10.066C36.8395 8.40295 36.4295 7.02689 35.4968 5.85839C35.0021 5.23762 34.4214 4.69057 33.7722 4.23377C32.5499 3.37277 31.1226 2.99352 29.3852 2.81414C27.6837 2.63477 25.5389 2.63477 22.815 2.63477ZM24.3704 36.6648C25.3215 35.4422 25.8365 33.9368 25.8336 32.388C25.8336 32.0728 25.8208 31.7473 25.808 31.445L25.8003 31.3296C25.79 31.0606 25.7772 30.8095 25.7721 30.5609C25.7451 30.0829 25.7839 29.6035 25.8874 29.1361C25.9586 28.8707 26.0983 28.6287 26.2926 28.4343C26.4869 28.24 26.729 28.1003 26.9944 28.0291C27.3685 27.9266 27.8349 27.901 28.4166 27.9138C28.6677 27.919 28.9214 27.9292 29.1879 27.942L29.3032 27.9471C29.6056 27.9625 29.931 27.9753 30.2488 27.9753C31.8785 27.9753 33.3802 27.4167 34.5692 26.4763L34.564 26.5531C34.4692 28.0086 34.2822 28.9978 33.949 29.8331C32.8062 32.7185 30.3744 35.0248 27.2532 36.1215C26.4512 36.4034 25.5569 36.5674 24.3704 36.6648ZM34.6614 20.9669V21.0002C34.6614 23.4371 32.6857 25.4128 30.2488 25.4128C29.9977 25.4128 29.726 25.4026 29.4237 25.3872L29.3109 25.3821C29.047 25.3718 28.7574 25.3565 28.4704 25.3513C27.752 25.3194 27.0326 25.3884 26.3333 25.5563C24.9085 25.9356 23.7964 27.0477 23.412 28.4725C23.2447 29.1727 23.1766 29.893 23.2096 30.6121C23.2147 30.8991 23.2301 31.1861 23.2429 31.4526L23.248 31.5628C23.2609 31.8678 23.2737 32.1368 23.2737 32.388C23.2737 34.7967 21.3467 36.7519 18.9507 36.8006H17.4619C14.2793 36.8006 13.0185 36.7852 12.0499 36.4418C11.2662 36.1781 10.5482 35.7492 9.94431 35.1843C9.34045 34.6193 8.86483 33.9314 8.54954 33.167C8.39067 32.7646 8.29073 32.2624 8.23692 31.4578C8.18608 30.3541 8.16814 29.2492 8.18311 28.1445V17.5844C8.18311 14.3249 8.18311 12.0161 8.43423 10.2659C8.67767 8.56183 9.13379 7.57783 9.90511 6.85264C10.6892 6.11464 11.768 5.67389 13.6156 5.43814C15.4939 5.19983 17.9642 5.19727 21.421 5.19727H22.7432C25.5543 5.19727 27.5659 5.19983 29.1187 5.36127C30.6511 5.52014 31.5839 5.82508 32.2962 6.32733C32.7524 6.64764 33.1547 7.02945 33.4929 7.45483C34.008 8.10314 34.3232 8.94877 34.4897 10.3633C34.6589 11.8111 34.6614 13.6894 34.6614 16.3416V20.9669Z" fill="#333333"/>
</svg>
