<svg width="86" height="86" viewBox="0 0 86 86" fill="none" xmlns="http://www.w3.org/2000/svg">
<path d="M78.3312 43V43.0006C78.3423 49.3947 76.6088 55.6706 73.3175 61.1526L73.6337 61.3424L73.3175 61.1526C72.8372 61.9529 72.6945 62.9111 72.9207 63.8166C73.1469 64.7221 73.7236 65.5006 74.5238 65.9809C75.3241 66.4612 76.2824 66.604 77.1878 66.3777C78.0933 66.1515 78.8719 65.5748 79.3521 64.7746C83.2683 58.2494 85.3687 50.774 85.3687 43C85.3687 19.6008 66.3992 0.631226 43 0.631226C19.6008 0.631226 0.631226 19.6008 0.631226 43C0.631226 66.399 19.6005 85.3684 42.9994 85.3687C50.6686 85.3803 58.1958 83.3009 64.7714 79.3543C65.1676 79.1165 65.5132 78.8031 65.7883 78.4318C66.0634 78.0605 66.2626 77.6387 66.3747 77.1904C66.4868 76.7421 66.5095 76.2761 66.4415 75.819C66.3735 75.362 66.2161 74.9228 65.9783 74.5265C65.7406 74.1303 65.4271 73.7847 65.0558 73.5096C64.6846 73.2345 64.2627 73.0353 63.8144 72.9232C63.3661 72.8111 62.9001 72.7884 62.4431 72.8565C61.986 72.9245 61.5468 73.0818 61.1506 73.3196L61.1505 73.3196C55.669 76.6098 49.3938 78.3425 43.0006 78.3312H43C23.4868 78.3312 7.66877 62.5132 7.66877 43C7.66877 23.4868 23.4868 7.66877 43 7.66877C62.5132 7.66877 78.3312 23.4868 78.3312 43ZM56.0266 51.2494L47.7771 43L56.0266 34.7505C56.0269 34.7502 56.0272 34.7499 56.0276 34.7496C56.345 34.437 56.5975 34.0648 56.7705 33.6543C56.9437 33.2433 57.0338 32.8021 57.0356 32.3562C57.0375 31.9103 56.951 31.4684 56.7812 31.056C56.6113 30.6437 56.3616 30.269 56.0462 29.9537C55.7309 29.6384 55.3563 29.3886 54.9439 29.2188C54.5316 29.049 54.0897 28.9625 53.6437 28.9643C53.1978 28.9661 52.7566 29.0563 52.3457 29.2294C51.9352 29.4024 51.563 29.6549 51.2505 29.9723C51.2501 29.9726 51.2498 29.973 51.2494 29.9734L43 38.2228L34.7505 29.9734C34.7502 29.973 34.7498 29.9726 34.7495 29.9723C34.4369 29.6549 34.0647 29.4024 33.6543 29.2294C33.2433 29.0563 32.8022 28.9661 32.3562 28.9643C31.9103 28.9625 31.4684 29.049 31.056 29.2188C30.6437 29.3886 30.269 29.6384 29.9537 29.9537C29.6384 30.269 29.3886 30.6437 29.2188 31.056C29.049 31.4684 28.9625 31.9103 28.9643 32.3562C28.9662 32.8022 29.0563 33.2433 29.2294 33.6543C29.4024 34.0647 29.6549 34.4369 29.9723 34.7495C29.9726 34.7498 29.973 34.7502 29.9734 34.7505L38.2228 43L29.9734 51.2494C29.973 51.2498 29.9726 51.2501 29.9723 51.2505C29.6549 51.563 29.4024 51.9352 29.2294 52.3457C29.0563 52.7566 28.9662 53.1978 28.9643 53.6437C28.9625 54.0897 29.049 54.5316 29.2188 54.9439C29.3886 55.3563 29.6384 55.7309 29.9537 56.0462C30.269 56.3616 30.6437 56.6113 31.056 56.7812C31.4684 56.951 31.9103 57.0375 32.3562 57.0356C32.8022 57.0338 33.2433 56.9437 33.6543 56.7705C34.0648 56.5975 34.437 56.345 34.7496 56.0275C34.7499 56.0272 34.7502 56.0269 34.7505 56.0266L43 47.7771L51.2494 56.0266C51.2498 56.0269 51.2501 56.0272 51.2504 56.0275C51.5629 56.345 51.9352 56.5975 52.3457 56.7705C52.7566 56.9437 53.1978 57.0338 53.6437 57.0356C54.0897 57.0375 54.5316 56.951 54.9439 56.7812C55.3563 56.6113 55.7309 56.3616 56.0462 56.0462C56.3616 55.7309 56.6113 55.3563 56.7812 54.9439C56.951 54.5316 57.0375 54.0897 57.0356 53.6437C57.0338 53.1978 56.9437 52.7566 56.7705 52.3457C56.5975 51.9352 56.345 51.5629 56.0276 51.2504C56.0272 51.2501 56.0269 51.2497 56.0266 51.2494Z" fill="#EF3D3D" stroke="#EF3D3D" stroke-width="0.737549"/>
</svg>
