<svg width="84" height="84" viewBox="0 0 84 84" fill="none" xmlns="http://www.w3.org/2000/svg">
<g clip-path="url(#clip0_733_6198)">
<path d="M42.1122 84.0001C39.1181 84.0001 36.1075 83.6802 33.1216 83.0321C22.1622 80.6532 12.786 74.1481 6.71571 64.7145C-2.61124 50.2196 -2.18468 31.7626 7.78212 17.7106C8.98798 16.0126 11.3341 15.6188 13.0321 16.8165C14.7302 18.0223 15.1321 20.3684 13.9263 22.0665C5.73954 33.6083 5.39501 48.7431 13.0485 60.6458C18.0278 68.3895 25.7224 73.7216 34.713 75.6739C43.7118 77.6263 52.9239 75.961 60.6595 70.9817C76.6392 60.7032 81.2739 39.3423 70.9954 23.3626C66.0161 15.6188 58.3216 10.2868 49.3309 8.33446C40.3403 6.38211 31.12 8.04735 23.3845 13.0266C21.6372 14.1505 19.3075 13.6419 18.1837 11.8946C17.0599 10.1473 17.5684 7.81766 19.3157 6.69383C28.7493 0.631721 39.9794 -1.40265 50.9388 0.976253C61.8981 3.35516 71.2743 9.86024 77.3446 19.2938C89.8708 38.7681 84.2188 64.7966 64.7446 77.3227C57.8786 81.7196 50.0692 84.0001 42.1122 84.0001Z" fill="#4FE48B"/>
<path d="M38.3968 57.8655C36.7972 57.8655 35.1976 57.2585 33.9753 56.0362L23.1062 45.1671C21.6378 43.6987 21.6378 41.3116 23.1062 39.8433C24.5745 38.3749 26.9616 38.3749 28.43 39.8433L38.405 49.8101L54.9999 33.2233C56.4683 31.755 58.8554 31.755 60.3237 33.2233C61.7921 34.6917 61.7921 37.0788 60.3237 38.5472L42.8265 56.0444C41.6467 57.2101 40.0553 57.8644 38.3968 57.8655Z" fill="#4FE48B"/>
</g>
<defs>
<clipPath id="clip0_733_6198">
<rect width="84" height="84" fill="white"/>
</clipPath>
</defs>
</svg>
